<svg width="51" height="51" viewBox="0 0 51 51" fill="none" xmlns="http://www.w3.org/2000/svg">
<rect x="0.24707" y="0.563965" width="50" height="50" rx="10" fill="#5BB5A2"/>
<path d="M22.3626 38.0329C21.0908 38.0329 19.9779 37.7944 19.024 37.3174C18.0701 36.8405 17.2979 36.1705 16.7074 35.3074L16.2304 37.6241H12.3467V13.0952H16.7074V23.1452C17.2524 22.3957 17.9679 21.7371 18.8536 21.1693C19.7621 20.6015 20.9318 20.3176 22.3626 20.3176C23.9525 20.3176 25.3719 20.7037 26.6211 21.4759C27.8703 22.2481 28.8582 23.3042 29.585 24.6442C30.3118 25.9842 30.6752 27.5059 30.6752 29.2093C30.6752 30.9127 30.3118 32.4344 29.585 33.7744C28.8582 35.0917 27.8703 36.1364 26.6211 36.9086C25.3719 37.6581 23.9525 38.0329 22.3626 38.0329ZM21.4428 34.2173C22.8282 34.2173 23.9752 33.7517 24.8836 32.8205C25.7921 31.8893 26.2464 30.6856 26.2464 29.2093C26.2464 27.733 25.7921 26.5179 24.8836 25.564C23.9752 24.6101 22.8282 24.1332 21.4428 24.1332C20.0347 24.1332 18.8763 24.6101 17.9679 25.564C17.0821 26.4952 16.6392 27.699 16.6392 29.1752C16.6392 30.6515 17.0821 31.8666 17.9679 32.8205C18.8763 33.7517 20.0347 34.2173 21.4428 34.2173Z" fill="white"/>
<path d="M35.4223 37.8625C34.6274 37.8625 33.9688 37.6127 33.4464 37.113C32.9467 36.6134 32.6969 36.0115 32.6969 35.3074C32.6969 34.5807 32.9467 33.9674 33.4464 33.4678C33.9688 32.9681 34.6274 32.7183 35.4223 32.7183C36.2172 32.7183 36.8645 32.9681 37.3642 33.4678C37.8866 33.9674 38.1477 34.5807 38.1477 35.3074C38.1477 36.0115 37.8866 36.6134 37.3642 37.113C36.8645 37.6127 36.2172 37.8625 35.4223 37.8625Z" fill="white"/>
</svg>
