<svg width="380" height="550" viewBox="0 0 380 550" fill="none" xmlns="http://www.w3.org/2000/svg">
<g clip-path="url(#clip0_722_1098)">
<rect x="0.666992" width="378.667" height="550" rx="20" fill="#F8F8F8"/>
<path d="M59.747 94.48C57.6937 94.48 55.8937 94.12 54.347 93.4C52.8003 92.68 51.587 91.6533 50.707 90.32C49.8537 88.9867 49.4137 87.4 49.387 85.56H53.867C53.8937 87.0533 54.4137 88.32 55.427 89.36C56.4403 90.4 57.867 90.92 59.707 90.92C61.3337 90.92 62.6003 90.5333 63.507 89.76C64.4403 88.96 64.907 87.9467 64.907 86.72C64.907 85.7333 64.6803 84.9333 64.227 84.32C63.8003 83.7067 63.2003 83.2 62.427 82.8C61.6803 82.4 60.8137 82.04 59.827 81.72C58.8403 81.4 57.8003 81.0533 56.707 80.68C54.547 79.96 52.9203 79.0267 51.827 77.88C50.7603 76.7333 50.227 75.2267 50.227 73.36C50.2003 71.7867 50.5603 70.4133 51.307 69.24C52.0803 68.0667 53.147 67.16 54.507 66.52C55.8937 65.8533 57.507 65.52 59.347 65.52C61.1603 65.52 62.747 65.8533 64.107 66.52C65.4937 67.1867 66.5737 68.12 67.347 69.32C68.1203 70.4933 68.5203 71.8667 68.547 73.44H64.067C64.067 72.72 63.8803 72.04 63.507 71.4C63.1337 70.7333 62.587 70.1867 61.867 69.76C61.147 69.3333 60.267 69.12 59.227 69.12C57.8937 69.0933 56.787 69.4267 55.907 70.12C55.0537 70.8133 54.627 71.7733 54.627 73C54.627 74.0933 54.947 74.9333 55.587 75.52C56.227 76.1067 57.107 76.6 58.227 77C59.347 77.3733 60.627 77.8133 62.067 78.32C63.4537 78.7733 64.6937 79.32 65.787 79.96C66.8803 80.6 67.747 81.44 68.387 82.48C69.0537 83.52 69.387 84.84 69.387 86.44C69.387 87.8533 69.027 89.1733 68.307 90.4C67.587 91.6 66.507 92.5867 65.067 93.36C63.627 94.1067 61.8537 94.48 59.747 94.48ZM79.3826 94.48C77.7026 94.48 76.316 94.2 75.2226 93.64C74.1293 93.08 73.3159 92.3467 72.7826 91.44C72.2493 90.5067 71.9826 89.4933 71.9826 88.4C71.9826 86.48 72.7293 84.96 74.2226 83.84C75.7159 82.72 77.8493 82.16 80.6226 82.16H85.8226V81.8C85.8226 80.2533 85.396 79.0933 84.5426 78.32C83.716 77.5467 82.636 77.16 81.3026 77.16C80.1293 77.16 79.1026 77.4533 78.2226 78.04C77.3693 78.6 76.8493 79.44 76.6626 80.56H72.4226C72.5559 79.12 73.0359 77.8933 73.8626 76.88C74.716 75.84 75.7826 75.0533 77.0626 74.52C78.3693 73.96 79.796 73.68 81.3426 73.68C84.116 73.68 86.2626 74.4133 87.7826 75.88C89.3026 77.32 90.0626 79.2933 90.0626 81.8V94H86.3826L86.0226 90.6C85.4626 91.6933 84.6493 92.6133 83.5826 93.36C82.516 94.1067 81.116 94.48 79.3826 94.48ZM80.2226 91.04C81.3693 91.04 82.3293 90.7733 83.1026 90.24C83.9026 89.68 84.516 88.9467 84.9426 88.04C85.396 87.1333 85.676 86.1333 85.7826 85.04H81.0626C79.3826 85.04 78.1826 85.3333 77.4626 85.92C76.7693 86.5067 76.4226 87.24 76.4226 88.12C76.4226 89.0267 76.756 89.7467 77.4226 90.28C78.116 90.7867 79.0493 91.04 80.2226 91.04ZM98.7023 94L91.2623 74.16H95.7023L101.222 89.96L106.742 74.16H111.142L103.742 94H98.7023ZM115.827 70.4C115.027 70.4 114.36 70.16 113.827 69.68C113.32 69.1733 113.067 68.5467 113.067 67.8C113.067 67.0533 113.32 66.44 113.827 65.96C114.36 65.4533 115.027 65.2 115.827 65.2C116.627 65.2 117.28 65.4533 117.787 65.96C118.32 66.44 118.587 67.0533 118.587 67.8C118.587 68.5467 118.32 69.1733 117.787 69.68C117.28 70.16 116.627 70.4 115.827 70.4ZM113.707 94V74.16H117.947V94H113.707ZM122.344 94V74.16H126.104L126.424 77.64C127.037 76.4133 127.931 75.4533 129.104 74.76C130.304 74.04 131.677 73.68 133.224 73.68C135.624 73.68 137.504 74.4267 138.864 75.92C140.251 77.4133 140.944 79.64 140.944 82.6V94H136.744V83.04C136.744 79.2 135.171 77.28 132.024 77.28C130.451 77.28 129.144 77.84 128.104 78.96C127.091 80.08 126.584 81.68 126.584 83.76V94H122.344ZM152.858 87.92C151.818 87.92 150.858 87.8 149.978 87.56L148.258 89.24C148.551 89.4267 148.911 89.5867 149.338 89.72C149.764 89.8533 150.364 89.9733 151.138 90.08C151.911 90.1867 152.964 90.2933 154.298 90.4C156.938 90.64 158.844 91.28 160.018 92.32C161.191 93.3333 161.778 94.6933 161.778 96.4C161.778 97.5733 161.458 98.68 160.818 99.72C160.204 100.787 159.231 101.64 157.898 102.28C156.591 102.947 154.911 103.28 152.858 103.28C150.084 103.28 147.831 102.747 146.098 101.68C144.391 100.64 143.538 99.0533 143.538 96.92C143.538 96.0933 143.751 95.2667 144.178 94.44C144.631 93.64 145.338 92.88 146.298 92.16C145.738 91.92 145.244 91.6667 144.818 91.4C144.418 91.1067 144.058 90.8133 143.738 90.52V89.56L147.178 86.04C145.631 84.7067 144.858 82.96 144.858 80.8C144.858 79.4933 145.164 78.3067 145.778 77.24C146.418 76.1467 147.338 75.28 148.538 74.64C149.738 74 151.178 73.68 152.858 73.68C153.978 73.68 155.018 73.84 155.978 74.16H163.378V76.96L159.858 77.16C160.498 78.2533 160.818 79.4667 160.818 80.8C160.818 82.1333 160.498 83.3333 159.858 84.4C159.244 85.4667 158.338 86.32 157.138 86.96C155.964 87.6 154.538 87.92 152.858 87.92ZM152.858 84.6C154.084 84.6 155.071 84.28 155.818 83.64C156.591 82.9733 156.978 82.04 156.978 80.84C156.978 79.6133 156.591 78.68 155.818 78.04C155.071 77.4 154.084 77.08 152.858 77.08C151.604 77.08 150.591 77.4 149.818 78.04C149.071 78.68 148.698 79.6133 148.698 80.84C148.698 82.04 149.071 82.9733 149.818 83.64C150.591 84.28 151.604 84.6 152.858 84.6ZM147.538 96.52C147.538 97.6667 148.044 98.52 149.058 99.08C150.071 99.6667 151.338 99.96 152.858 99.96C154.324 99.96 155.511 99.64 156.418 99C157.324 98.3867 157.778 97.56 157.778 96.52C157.778 95.7467 157.471 95.08 156.858 94.52C156.244 93.9867 155.084 93.6533 153.378 93.52C152.098 93.44 150.964 93.32 149.978 93.16C149.044 93.6667 148.404 94.2133 148.058 94.8C147.711 95.3867 147.538 95.96 147.538 96.52ZM57.067 142.48C55.387 142.48 54.0003 142.2 52.907 141.64C51.8137 141.08 51.0003 140.347 50.467 139.44C49.9337 138.507 49.667 137.493 49.667 136.4C49.667 134.48 50.4137 132.96 51.907 131.84C53.4003 130.72 55.5337 130.16 58.307 130.16H63.507V129.8C63.507 128.253 63.0803 127.093 62.227 126.32C61.4003 125.547 60.3203 125.16 58.987 125.16C57.8137 125.16 56.787 125.453 55.907 126.04C55.0537 126.6 54.5337 127.44 54.347 128.56H50.107C50.2403 127.12 50.7203 125.893 51.547 124.88C52.4003 123.84 53.467 123.053 54.747 122.52C56.0537 121.96 57.4803 121.68 59.027 121.68C61.8003 121.68 63.947 122.413 65.467 123.88C66.987 125.32 67.747 127.293 67.747 129.8V142H64.067L63.707 138.6C63.147 139.693 62.3337 140.613 61.267 141.36C60.2003 142.107 58.8003 142.48 57.067 142.48ZM57.907 139.04C59.0537 139.04 60.0137 138.773 60.787 138.24C61.587 137.68 62.2003 136.947 62.627 136.04C63.0803 135.133 63.3603 134.133 63.467 133.04H58.747C57.067 133.04 55.867 133.333 55.147 133.92C54.4537 134.507 54.107 135.24 54.107 136.12C54.107 137.027 54.4403 137.747 55.107 138.28C55.8003 138.787 56.7337 139.04 57.907 139.04ZM80.8907 142.48C78.9441 142.48 77.1974 142.04 75.6507 141.16C74.1307 140.28 72.9307 139.067 72.0507 137.52C71.1974 135.947 70.7707 134.133 70.7707 132.08C70.7707 130.027 71.1974 128.227 72.0507 126.68C72.9307 125.107 74.1307 123.88 75.6507 123C77.1974 122.12 78.9441 121.68 80.8907 121.68C83.3441 121.68 85.3974 122.32 87.0507 123.6C88.7307 124.88 89.8107 126.613 90.2907 128.8H85.8507C85.5841 127.707 84.9974 126.853 84.0907 126.24C83.1841 125.627 82.1174 125.32 80.8907 125.32C79.8507 125.32 78.8907 125.587 78.0107 126.12C77.1307 126.627 76.4241 127.387 75.8907 128.4C75.3574 129.387 75.0907 130.613 75.0907 132.08C75.0907 133.547 75.3574 134.787 75.8907 135.8C76.4241 136.787 77.1307 137.547 78.0107 138.08C78.8907 138.613 79.8507 138.88 80.8907 138.88C82.1174 138.88 83.1841 138.573 84.0907 137.96C84.9974 137.347 85.5841 136.48 85.8507 135.36H90.2907C89.8374 137.493 88.7707 139.213 87.0907 140.52C85.4107 141.827 83.3441 142.48 80.8907 142.48ZM103.089 142.48C101.143 142.48 99.3958 142.04 97.8492 141.16C96.3292 140.28 95.1292 139.067 94.2492 137.52C93.3958 135.947 92.9692 134.133 92.9692 132.08C92.9692 130.027 93.3958 128.227 94.2492 126.68C95.1292 125.107 96.3292 123.88 97.8492 123C99.3958 122.12 101.143 121.68 103.089 121.68C105.543 121.68 107.596 122.32 109.249 123.6C110.929 124.88 112.009 126.613 112.489 128.8H108.049C107.783 127.707 107.196 126.853 106.289 126.24C105.383 125.627 104.316 125.32 103.089 125.32C102.049 125.32 101.089 125.587 100.209 126.12C99.3292 126.627 98.6225 127.387 98.0892 128.4C97.5558 129.387 97.2892 130.613 97.2892 132.08C97.2892 133.547 97.5558 134.787 98.0892 135.8C98.6225 136.787 99.3292 137.547 100.209 138.08C101.089 138.613 102.049 138.88 103.089 138.88C104.316 138.88 105.383 138.573 106.289 137.96C107.196 137.347 107.783 136.48 108.049 135.36H112.489C112.036 137.493 110.969 139.213 109.289 140.52C107.609 141.827 105.543 142.48 103.089 142.48ZM125.168 142.48C123.274 142.48 121.568 142.053 120.048 141.2C118.554 140.32 117.368 139.107 116.488 137.56C115.608 135.987 115.168 134.16 115.168 132.08C115.168 130 115.608 128.187 116.488 126.64C117.394 125.067 118.608 123.853 120.128 123C121.648 122.12 123.341 121.68 125.208 121.68C127.101 121.68 128.794 122.12 130.288 123C131.808 123.853 133.008 125.067 133.888 126.64C134.794 128.187 135.248 130 135.248 132.08C135.248 134.16 134.794 135.987 133.888 137.56C133.008 139.107 131.808 140.32 130.288 141.2C128.768 142.053 127.061 142.48 125.168 142.48ZM125.168 138.84C126.181 138.84 127.114 138.587 127.968 138.08C128.848 137.573 129.554 136.827 130.088 135.84C130.621 134.827 130.888 133.573 130.888 132.08C130.888 130.587 130.621 129.347 130.088 128.36C129.581 127.347 128.888 126.587 128.008 126.08C127.154 125.573 126.221 125.32 125.208 125.32C124.194 125.32 123.248 125.573 122.368 126.08C121.514 126.587 120.821 127.347 120.288 128.36C119.754 129.347 119.488 130.587 119.488 132.08C119.488 133.573 119.754 134.827 120.288 135.84C120.821 136.827 121.514 137.573 122.368 138.08C123.221 138.587 124.154 138.84 125.168 138.84ZM145.953 142.48C143.553 142.48 141.66 141.733 140.273 140.24C138.913 138.747 138.233 136.52 138.233 133.56V122.16H142.473V133.12C142.473 136.96 144.046 138.88 147.193 138.88C148.766 138.88 150.06 138.32 151.073 137.2C152.086 136.08 152.593 134.48 152.593 132.4V122.16H156.833V142H153.073L152.753 138.52C152.14 139.747 151.233 140.72 150.033 141.44C148.86 142.133 147.5 142.48 145.953 142.48ZM161.027 142V122.16H164.787L165.107 125.64C165.72 124.413 166.613 123.453 167.787 122.76C168.987 122.04 170.36 121.68 171.907 121.68C174.307 121.68 176.187 122.427 177.547 123.92C178.933 125.413 179.627 127.64 179.627 130.6V142H175.427V131.04C175.427 127.2 173.853 125.28 170.707 125.28C169.133 125.28 167.827 125.84 166.787 126.96C165.773 128.08 165.267 129.68 165.267 131.76V142H161.027ZM191.74 142C189.794 142 188.247 141.533 187.1 140.6C185.954 139.64 185.38 137.947 185.38 135.52V125.72H181.98V122.16H185.38L185.9 117.12H189.62V122.16H195.22V125.72H189.62V135.52C189.62 136.613 189.847 137.373 190.3 137.8C190.78 138.2 191.594 138.4 192.74 138.4H195.02V142H191.74ZM206.312 142.48C203.806 142.48 201.739 141.867 200.112 140.64C198.486 139.413 197.552 137.787 197.312 135.76H201.592C201.806 136.667 202.312 137.453 203.112 138.12C203.912 138.76 204.966 139.08 206.272 139.08C207.552 139.08 208.486 138.813 209.072 138.28C209.659 137.747 209.952 137.133 209.952 136.44C209.952 135.427 209.539 134.747 208.712 134.4C207.912 134.027 206.792 133.693 205.352 133.4C204.232 133.16 203.112 132.84 201.992 132.44C200.899 132.04 199.979 131.48 199.232 130.76C198.512 130.013 198.152 129.013 198.152 127.76C198.152 126.027 198.819 124.587 200.152 123.44C201.486 122.267 203.352 121.68 205.752 121.68C207.966 121.68 209.752 122.213 211.112 123.28C212.499 124.347 213.312 125.853 213.552 127.8H209.472C209.339 126.947 208.939 126.28 208.272 125.8C207.632 125.32 206.766 125.08 205.672 125.08C204.606 125.08 203.779 125.307 203.192 125.76C202.606 126.187 202.312 126.747 202.312 127.44C202.312 128.133 202.712 128.68 203.512 129.08C204.339 129.48 205.419 129.84 206.752 130.16C208.086 130.453 209.312 130.8 210.432 131.2C211.579 131.573 212.499 132.133 213.192 132.88C213.886 133.627 214.232 134.72 214.232 136.16C214.259 137.973 213.552 139.48 212.112 140.68C210.699 141.88 208.766 142.48 206.312 142.48Z" fill="#1A191E"/>
<path d="M49.1052 183V169.909H51.0803V181.3H57.0122V183H49.1052ZM63.2476 183.198C62.3271 183.198 61.5239 182.987 60.8378 182.565C60.1517 182.143 59.6191 181.553 59.2398 180.795C58.8605 180.036 58.6709 179.15 58.6709 178.136C58.6709 177.117 58.8605 176.227 59.2398 175.464C59.6191 174.701 60.1517 174.109 60.8378 173.687C61.5239 173.265 62.3271 173.054 63.2476 173.054C64.1681 173.054 64.9713 173.265 65.6574 173.687C66.3435 174.109 66.8762 174.701 67.2554 175.464C67.6347 176.227 67.8243 177.117 67.8243 178.136C67.8243 179.15 67.6347 180.036 67.2554 180.795C66.8762 181.553 66.3435 182.143 65.6574 182.565C64.9713 182.987 64.1681 183.198 63.2476 183.198ZM63.254 181.594C63.8506 181.594 64.3449 181.436 64.7369 181.121C65.129 180.805 65.4188 180.386 65.6063 179.862C65.798 179.337 65.8939 178.76 65.8939 178.129C65.8939 177.503 65.798 176.928 65.6063 176.403C65.4188 175.875 65.129 175.451 64.7369 175.131C64.3449 174.812 63.8506 174.652 63.254 174.652C62.6531 174.652 62.1546 174.812 61.7583 175.131C61.3662 175.451 61.0743 175.875 60.8825 176.403C60.695 176.928 60.6013 177.503 60.6013 178.129C60.6013 178.76 60.695 179.337 60.8825 179.862C61.0743 180.386 61.3662 180.805 61.7583 181.121C62.1546 181.436 62.6531 181.594 63.254 181.594ZM69.9577 183V173.182H71.805V174.741H71.9072C72.0862 174.213 72.4015 173.798 72.8532 173.495C73.3092 173.188 73.8248 173.035 74.4001 173.035C74.5194 173.035 74.6601 173.039 74.822 173.048C74.9882 173.056 75.1182 173.067 75.2119 173.08V174.908C75.1352 174.886 74.9988 174.863 74.8028 174.837C74.6068 174.808 74.4108 174.793 74.2148 174.793C73.7631 174.793 73.3604 174.888 73.0067 175.08C72.6572 175.268 72.3802 175.53 72.1757 175.866C71.9711 176.199 71.8689 176.578 71.8689 177.004V183H69.9577ZM80.7458 183.198C79.7785 183.198 78.9454 182.991 78.2465 182.578C77.5519 182.161 77.015 181.575 76.6357 180.82C76.2607 180.062 76.0732 179.173 76.0732 178.155C76.0732 177.149 76.2607 176.263 76.6357 175.496C77.015 174.729 77.5434 174.13 78.221 173.7C78.9028 173.269 79.6997 173.054 80.6116 173.054C81.1656 173.054 81.7025 173.146 82.2224 173.329C82.7423 173.512 83.2089 173.8 83.6222 174.192C84.0356 174.584 84.3616 175.093 84.6002 175.719C84.8389 176.342 84.9582 177.098 84.9582 177.989V178.666H77.1535V177.234H83.0853C83.0853 176.732 82.983 176.286 82.7785 175.898C82.574 175.506 82.2863 175.197 81.9156 174.972C81.5491 174.746 81.1187 174.633 80.6244 174.633C80.0874 174.633 79.6187 174.765 79.2181 175.029C78.8218 175.289 78.515 175.63 78.2977 176.052C78.0846 176.469 77.9781 176.923 77.9781 177.413V178.532C77.9781 179.188 78.0931 179.746 78.3232 180.207C78.5576 180.667 78.8836 181.018 79.3012 181.261C79.7188 181.5 80.2068 181.619 80.765 181.619C81.1272 181.619 81.4575 181.568 81.7558 181.466C82.0541 181.359 82.3119 181.202 82.5292 180.993C82.7465 180.784 82.9127 180.526 83.0278 180.219L84.8367 180.545C84.6919 181.078 84.4319 181.545 84.0569 181.945C83.6862 182.342 83.2195 182.651 82.657 182.872C82.0988 183.089 81.4617 183.198 80.7458 183.198ZM87.0787 183V173.182H88.9133V174.78H89.0347C89.2393 174.239 89.5738 173.817 90.0383 173.514C90.5028 173.207 91.0589 173.054 91.7066 173.054C92.3628 173.054 92.9126 173.207 93.3557 173.514C93.8032 173.821 94.1334 174.243 94.3465 174.78H94.4488C94.6832 174.256 95.056 173.838 95.5674 173.527C96.0787 173.212 96.6881 173.054 97.3955 173.054C98.2861 173.054 99.0127 173.333 99.5752 173.891C100.142 174.45 100.425 175.291 100.425 176.416V183H98.5141V176.595C98.5141 175.93 98.333 175.449 97.9708 175.151C97.6086 174.852 97.176 174.703 96.6732 174.703C96.051 174.703 95.5674 174.895 95.2222 175.278C94.877 175.658 94.7045 176.146 94.7045 176.742V183H92.7996V176.474C92.7996 175.941 92.6334 175.513 92.301 175.189C91.9687 174.865 91.5361 174.703 91.0035 174.703C90.6412 174.703 90.3067 174.799 89.9999 174.991C89.6974 175.178 89.4523 175.44 89.2648 175.777C89.0816 176.114 88.99 176.504 88.99 176.947V183H87.0787ZM107.751 183V173.182H109.662V183H107.751ZM108.716 171.667C108.383 171.667 108.098 171.556 107.859 171.335C107.625 171.109 107.508 170.84 107.508 170.529C107.508 170.214 107.625 169.945 107.859 169.724C108.098 169.498 108.383 169.385 108.716 169.385C109.048 169.385 109.332 169.498 109.566 169.724C109.805 169.945 109.924 170.214 109.924 170.529C109.924 170.84 109.805 171.109 109.566 171.335C109.332 171.556 109.048 171.667 108.716 171.667ZM112.233 186.682V173.182H114.1V174.773H114.259C114.37 174.569 114.53 174.332 114.739 174.064C114.948 173.795 115.237 173.561 115.608 173.361C115.979 173.156 116.469 173.054 117.078 173.054C117.871 173.054 118.578 173.254 119.2 173.655C119.823 174.055 120.31 174.633 120.664 175.387C121.022 176.141 121.201 177.049 121.201 178.11C121.201 179.171 121.024 180.081 120.671 180.839C120.317 181.594 119.831 182.175 119.213 182.585C118.595 182.989 117.89 183.192 117.097 183.192C116.501 183.192 116.013 183.092 115.634 182.891C115.259 182.691 114.965 182.457 114.752 182.188C114.538 181.92 114.374 181.681 114.259 181.472H114.144V186.682H112.233ZM114.106 178.091C114.106 178.781 114.206 179.386 114.406 179.906C114.607 180.426 114.896 180.833 115.276 181.127C115.655 181.417 116.119 181.562 116.669 181.562C117.24 181.562 117.717 181.411 118.101 181.108C118.484 180.801 118.774 180.386 118.97 179.862C119.171 179.337 119.271 178.747 119.271 178.091C119.271 177.443 119.173 176.862 118.977 176.346C118.785 175.83 118.495 175.423 118.107 175.125C117.724 174.827 117.244 174.678 116.669 174.678C116.115 174.678 115.646 174.82 115.263 175.106C114.884 175.391 114.596 175.79 114.4 176.301C114.204 176.812 114.106 177.409 114.106 178.091ZM130.7 175.579L128.967 175.886C128.895 175.664 128.78 175.453 128.622 175.253C128.469 175.053 128.26 174.888 127.996 174.761C127.732 174.633 127.401 174.569 127.005 174.569C126.464 174.569 126.012 174.69 125.65 174.933C125.288 175.172 125.107 175.481 125.107 175.86C125.107 176.188 125.228 176.452 125.471 176.653C125.714 176.853 126.106 177.017 126.647 177.145L128.207 177.503C129.11 177.712 129.783 178.033 130.227 178.468C130.67 178.903 130.891 179.467 130.891 180.162C130.891 180.75 130.721 181.274 130.38 181.734C130.043 182.19 129.573 182.548 128.967 182.808C128.367 183.068 127.67 183.198 126.877 183.198C125.778 183.198 124.881 182.964 124.186 182.495C123.492 182.022 123.065 181.351 122.908 180.482L124.755 180.2C124.87 180.682 125.107 181.046 125.465 181.293C125.823 181.536 126.289 181.658 126.864 181.658C127.491 181.658 127.992 181.528 128.367 181.268C128.742 181.004 128.929 180.682 128.929 180.303C128.929 179.996 128.814 179.738 128.584 179.529C128.358 179.32 128.011 179.163 127.542 179.056L125.88 178.692C124.964 178.483 124.286 178.151 123.847 177.695C123.413 177.239 123.195 176.661 123.195 175.962C123.195 175.383 123.357 174.876 123.681 174.441C124.005 174.006 124.453 173.668 125.024 173.425C125.595 173.178 126.249 173.054 126.986 173.054C128.047 173.054 128.882 173.284 129.492 173.744C130.101 174.2 130.504 174.812 130.7 175.579ZM139.212 178.928V173.182H141.13V183H139.251V181.3H139.148C138.922 181.824 138.56 182.261 138.062 182.61C137.567 182.955 136.952 183.128 136.214 183.128C135.584 183.128 135.025 182.989 134.54 182.712C134.058 182.431 133.679 182.016 133.402 181.466C133.129 180.916 132.993 180.237 132.993 179.427V173.182H134.904V179.197C134.904 179.866 135.089 180.398 135.46 180.795C135.831 181.191 136.312 181.389 136.905 181.389C137.263 181.389 137.619 181.3 137.972 181.121C138.33 180.942 138.626 180.671 138.861 180.309C139.099 179.947 139.217 179.487 139.212 178.928ZM143.698 183V173.182H145.532V174.78H145.654C145.858 174.239 146.193 173.817 146.657 173.514C147.122 173.207 147.678 173.054 148.326 173.054C148.982 173.054 149.532 173.207 149.975 173.514C150.422 173.821 150.753 174.243 150.966 174.78H151.068C151.302 174.256 151.675 173.838 152.187 173.527C152.698 173.212 153.307 173.054 154.015 173.054C154.905 173.054 155.632 173.333 156.194 173.891C156.761 174.45 157.044 175.291 157.044 176.416V183H155.133V176.595C155.133 175.93 154.952 175.449 154.59 175.151C154.228 174.852 153.795 174.703 153.292 174.703C152.67 174.703 152.187 174.895 151.841 175.278C151.496 175.658 151.324 176.146 151.324 176.742V183H149.419V176.474C149.419 175.941 149.253 175.513 148.92 175.189C148.588 174.865 148.155 174.703 147.623 174.703C147.26 174.703 146.926 174.799 146.619 174.991C146.316 175.178 146.071 175.44 145.884 175.777C145.701 176.114 145.609 176.504 145.609 176.947V183H143.698ZM168.045 183.192C167.253 183.192 166.545 182.989 165.923 182.585C165.305 182.175 164.819 181.594 164.466 180.839C164.116 180.081 163.941 179.171 163.941 178.11C163.941 177.049 164.118 176.141 164.472 175.387C164.83 174.633 165.32 174.055 165.942 173.655C166.564 173.254 167.27 173.054 168.058 173.054C168.667 173.054 169.157 173.156 169.528 173.361C169.903 173.561 170.193 173.795 170.397 174.064C170.606 174.332 170.768 174.569 170.883 174.773H170.998V169.909H172.91V183H171.043V181.472H170.883C170.768 181.681 170.602 181.92 170.385 182.188C170.172 182.457 169.878 182.691 169.503 182.891C169.128 183.092 168.642 183.192 168.045 183.192ZM168.467 181.562C169.017 181.562 169.481 181.417 169.861 181.127C170.244 180.833 170.534 180.426 170.73 179.906C170.93 179.386 171.03 178.781 171.03 178.091C171.03 177.409 170.932 176.812 170.736 176.301C170.54 175.79 170.253 175.391 169.873 175.106C169.494 174.82 169.025 174.678 168.467 174.678C167.892 174.678 167.412 174.827 167.029 175.125C166.645 175.423 166.356 175.83 166.16 176.346C165.968 176.862 165.872 177.443 165.872 178.091C165.872 178.747 165.97 179.337 166.166 179.862C166.362 180.386 166.652 180.801 167.035 181.108C167.423 181.411 167.9 181.562 168.467 181.562ZM179.773 183.198C178.853 183.198 178.049 182.987 177.363 182.565C176.677 182.143 176.144 181.553 175.765 180.795C175.386 180.036 175.196 179.15 175.196 178.136C175.196 177.117 175.386 176.227 175.765 175.464C176.144 174.701 176.677 174.109 177.363 173.687C178.049 173.265 178.853 173.054 179.773 173.054C180.693 173.054 181.497 173.265 182.183 173.687C182.869 174.109 183.402 174.701 183.781 175.464C184.16 176.227 184.35 177.117 184.35 178.136C184.35 179.15 184.16 180.036 183.781 180.795C183.402 181.553 182.869 182.143 182.183 182.565C181.497 182.987 180.693 183.198 179.773 183.198ZM179.779 181.594C180.376 181.594 180.87 181.436 181.262 181.121C181.654 180.805 181.944 180.386 182.132 179.862C182.323 179.337 182.419 178.76 182.419 178.129C182.419 177.503 182.323 176.928 182.132 176.403C181.944 175.875 181.654 175.451 181.262 175.131C180.87 174.812 180.376 174.652 179.779 174.652C179.179 174.652 178.68 174.812 178.284 175.131C177.892 175.451 177.6 175.875 177.408 176.403C177.22 176.928 177.127 177.503 177.127 178.129C177.127 178.76 177.22 179.337 177.408 179.862C177.6 180.386 177.892 180.805 178.284 181.121C178.68 181.436 179.179 181.594 179.779 181.594ZM188.394 169.909V183H186.483V169.909H188.394ZM195.101 183.198C194.181 183.198 193.377 182.987 192.691 182.565C192.005 182.143 191.473 181.553 191.093 180.795C190.714 180.036 190.524 179.15 190.524 178.136C190.524 177.117 190.714 176.227 191.093 175.464C191.473 174.701 192.005 174.109 192.691 173.687C193.377 173.265 194.181 173.054 195.101 173.054C196.022 173.054 196.825 173.265 197.511 173.687C198.197 174.109 198.73 174.701 199.109 175.464C199.488 176.227 199.678 177.117 199.678 178.136C199.678 179.15 199.488 180.036 199.109 180.795C198.73 181.553 198.197 182.143 197.511 182.565C196.825 182.987 196.022 183.198 195.101 183.198ZM195.108 181.594C195.704 181.594 196.198 181.436 196.59 181.121C196.983 180.805 197.272 180.386 197.46 179.862C197.652 179.337 197.747 178.76 197.747 178.129C197.747 177.503 197.652 176.928 197.46 176.403C197.272 175.875 196.983 175.451 196.59 175.131C196.198 174.812 195.704 174.652 195.108 174.652C194.507 174.652 194.008 174.812 193.612 175.131C193.22 175.451 192.928 175.875 192.736 176.403C192.549 176.928 192.455 177.503 192.455 178.129C192.455 178.76 192.549 179.337 192.736 179.862C192.928 180.386 193.22 180.805 193.612 181.121C194.008 181.436 194.507 181.594 195.108 181.594ZM201.811 183V173.182H203.658V174.741H203.761C203.94 174.213 204.255 173.798 204.707 173.495C205.163 173.188 205.678 173.035 206.254 173.035C206.373 173.035 206.514 173.039 206.676 173.048C206.842 173.056 206.972 173.067 207.065 173.08V174.908C206.989 174.886 206.852 174.863 206.656 174.837C206.46 174.808 206.264 174.793 206.068 174.793C205.617 174.793 205.214 174.888 204.86 175.08C204.511 175.268 204.234 175.53 204.029 175.866C203.825 176.199 203.722 176.578 203.722 177.004V183H201.811ZM220.84 175.579L219.108 175.886C219.036 175.664 218.921 175.453 218.763 175.253C218.609 175.053 218.401 174.888 218.136 174.761C217.872 174.633 217.542 174.569 217.146 174.569C216.604 174.569 216.153 174.69 215.791 174.933C215.428 175.172 215.247 175.481 215.247 175.86C215.247 176.188 215.369 176.452 215.612 176.653C215.854 176.853 216.247 177.017 216.788 177.145L218.347 177.503C219.251 177.712 219.924 178.033 220.367 178.468C220.81 178.903 221.032 179.467 221.032 180.162C221.032 180.75 220.862 181.274 220.521 181.734C220.184 182.19 219.713 182.548 219.108 182.808C218.507 183.068 217.81 183.198 217.018 183.198C215.918 183.198 215.021 182.964 214.327 182.495C213.632 182.022 213.206 181.351 213.048 180.482L214.896 180.2C215.011 180.682 215.247 181.046 215.605 181.293C215.963 181.536 216.43 181.658 217.005 181.658C217.631 181.658 218.132 181.528 218.507 181.268C218.882 181.004 219.07 180.682 219.07 180.303C219.07 179.996 218.955 179.738 218.725 179.529C218.499 179.32 218.151 179.163 217.683 179.056L216.021 178.692C215.104 178.483 214.427 178.151 213.988 177.695C213.553 177.239 213.336 176.661 213.336 175.962C213.336 175.383 213.498 174.876 213.822 174.441C214.146 174.006 214.593 173.668 215.164 173.425C215.735 173.178 216.389 173.054 217.127 173.054C218.188 173.054 219.023 173.284 219.632 173.744C220.242 174.2 220.644 174.812 220.84 175.579ZM223.133 183V173.182H225.045V183H223.133ZM224.099 171.667C223.766 171.667 223.481 171.556 223.242 171.335C223.008 171.109 222.891 170.84 222.891 170.529C222.891 170.214 223.008 169.945 223.242 169.724C223.481 169.498 223.766 169.385 224.099 169.385C224.431 169.385 224.714 169.498 224.949 169.724C225.187 169.945 225.307 170.214 225.307 170.529C225.307 170.84 225.187 171.109 224.949 171.335C224.714 171.556 224.431 171.667 224.099 171.667ZM232.199 173.182V174.716H226.836V173.182H232.199ZM228.274 170.83H230.185V180.117C230.185 180.488 230.241 180.767 230.352 180.955C230.462 181.138 230.605 181.263 230.78 181.332C230.959 181.396 231.153 181.428 231.362 181.428C231.515 181.428 231.649 181.417 231.764 181.396C231.879 181.374 231.969 181.357 232.033 181.344L232.378 182.923C232.267 182.966 232.109 183.009 231.905 183.051C231.7 183.098 231.445 183.124 231.138 183.128C230.635 183.136 230.166 183.047 229.732 182.859C229.297 182.672 228.945 182.382 228.677 181.99C228.408 181.598 228.274 181.106 228.274 180.513V170.83ZM241.934 183.217C241.312 183.217 240.749 183.102 240.247 182.872C239.744 182.638 239.345 182.299 239.051 181.856C238.761 181.413 238.617 180.869 238.617 180.226C238.617 179.672 238.723 179.216 238.936 178.858C239.149 178.5 239.437 178.217 239.799 178.008C240.161 177.799 240.566 177.641 241.014 177.535C241.461 177.428 241.917 177.347 242.381 177.292C242.97 177.224 243.447 177.168 243.813 177.126C244.18 177.079 244.446 177.004 244.612 176.902C244.778 176.8 244.862 176.634 244.862 176.403V176.359C244.862 175.8 244.704 175.368 244.389 175.061C244.078 174.754 243.613 174.601 242.995 174.601C242.352 174.601 241.845 174.744 241.474 175.029C241.107 175.31 240.854 175.624 240.713 175.969L238.917 175.56C239.13 174.963 239.441 174.482 239.85 174.115C240.264 173.744 240.739 173.476 241.276 173.31C241.813 173.139 242.377 173.054 242.97 173.054C243.362 173.054 243.777 173.101 244.216 173.195C244.659 173.284 245.073 173.45 245.456 173.693C245.844 173.936 246.161 174.283 246.408 174.735C246.656 175.183 246.779 175.764 246.779 176.48V183H244.913V181.658H244.836C244.712 181.905 244.527 182.148 244.28 182.386C244.033 182.625 243.715 182.823 243.328 182.981C242.94 183.138 242.475 183.217 241.934 183.217ZM242.35 181.683C242.878 181.683 243.33 181.579 243.705 181.37C244.084 181.161 244.372 180.888 244.568 180.552C244.768 180.211 244.868 179.847 244.868 179.459V178.193C244.8 178.261 244.668 178.325 244.472 178.385C244.28 178.44 244.06 178.489 243.813 178.532C243.566 178.57 243.325 178.607 243.091 178.641C242.857 178.67 242.661 178.696 242.503 178.717C242.132 178.764 241.793 178.843 241.487 178.954C241.184 179.065 240.941 179.224 240.758 179.433C240.579 179.638 240.489 179.911 240.489 180.251C240.489 180.724 240.664 181.082 241.014 181.325C241.363 181.564 241.808 181.683 242.35 181.683ZM249.325 183V173.182H251.159V174.78H251.281C251.485 174.239 251.82 173.817 252.284 173.514C252.749 173.207 253.305 173.054 253.953 173.054C254.609 173.054 255.159 173.207 255.602 173.514C256.049 173.821 256.38 174.243 256.593 174.78H256.695C256.929 174.256 257.302 173.838 257.813 173.527C258.325 173.212 258.934 173.054 259.642 173.054C260.532 173.054 261.259 173.333 261.821 173.891C262.388 174.45 262.671 175.291 262.671 176.416V183H260.76V176.595C260.76 175.93 260.579 175.449 260.217 175.151C259.855 174.852 259.422 174.703 258.919 174.703C258.297 174.703 257.813 174.895 257.468 175.278C257.123 175.658 256.951 176.146 256.951 176.742V183H255.046V176.474C255.046 175.941 254.88 175.513 254.547 175.189C254.215 174.865 253.782 174.703 253.25 174.703C252.887 174.703 252.553 174.799 252.246 174.991C251.943 175.178 251.698 175.44 251.511 175.777C251.328 176.114 251.236 176.504 251.236 176.947V183H249.325ZM269.465 183.198C268.497 183.198 267.664 182.991 266.965 182.578C266.271 182.161 265.734 181.575 265.354 180.82C264.979 180.062 264.792 179.173 264.792 178.155C264.792 177.149 264.979 176.263 265.354 175.496C265.734 174.729 266.262 174.13 266.94 173.7C267.622 173.269 268.418 173.054 269.33 173.054C269.884 173.054 270.421 173.146 270.941 173.329C271.461 173.512 271.928 173.8 272.341 174.192C272.754 174.584 273.08 175.093 273.319 175.719C273.558 176.342 273.677 177.098 273.677 177.989V178.666H265.872V177.234H271.804C271.804 176.732 271.702 176.286 271.497 175.898C271.293 175.506 271.005 175.197 270.634 174.972C270.268 174.746 269.837 174.633 269.343 174.633C268.806 174.633 268.337 174.765 267.937 175.029C267.541 175.289 267.234 175.63 267.016 176.052C266.803 176.469 266.697 176.923 266.697 177.413V178.532C266.697 179.188 266.812 179.746 267.042 180.207C267.276 180.667 267.602 181.018 268.02 181.261C268.438 181.5 268.926 181.619 269.484 181.619C269.846 181.619 270.176 181.568 270.475 181.466C270.773 181.359 271.031 181.202 271.248 180.993C271.465 180.784 271.631 180.526 271.747 180.219L273.555 180.545C273.411 181.078 273.151 181.545 272.776 181.945C272.405 182.342 271.938 182.651 271.376 182.872C270.818 183.089 270.18 183.198 269.465 183.198ZM280.381 173.182V174.716H275.018V173.182H280.381ZM276.456 170.83H278.367V180.117C278.367 180.488 278.422 180.767 278.533 180.955C278.644 181.138 278.787 181.263 278.962 181.332C279.141 181.396 279.334 181.428 279.543 181.428C279.697 181.428 279.831 181.417 279.946 181.396C280.061 181.374 280.15 181.357 280.214 181.344L280.56 182.923C280.449 182.966 280.291 183.009 280.087 183.051C279.882 183.098 279.626 183.124 279.32 183.128C278.817 183.136 278.348 183.047 277.913 182.859C277.479 182.672 277.127 182.382 276.859 181.99C276.59 181.598 276.456 181.106 276.456 180.513V170.83ZM284.981 181.21L284.885 181.907C284.821 182.418 284.713 182.951 284.559 183.505C284.41 184.063 284.255 184.581 284.093 185.058C283.935 185.536 283.805 185.915 283.703 186.196H282.348C282.403 185.932 282.48 185.574 282.578 185.122C282.676 184.675 282.772 184.174 282.866 183.62C282.959 183.066 283.03 182.501 283.076 181.926L283.14 181.21H284.981ZM53.0874 215.198C52.1372 215.198 51.319 214.983 50.6329 214.553C49.9511 214.118 49.4269 213.519 49.0605 212.756C48.694 211.994 48.5107 211.12 48.5107 210.136C48.5107 209.138 48.6982 208.259 49.0732 207.496C49.4482 206.729 49.9767 206.13 50.6585 205.7C51.3403 205.269 52.1436 205.054 53.0683 205.054C53.814 205.054 54.4788 205.192 55.0626 205.469C55.6464 205.742 56.1173 206.126 56.4752 206.62C56.8374 207.114 57.0526 207.692 57.1208 208.352H55.2607C55.1585 207.892 54.9241 207.496 54.5576 207.163C54.1954 206.831 53.7096 206.665 53.1002 206.665C52.5676 206.665 52.1009 206.805 51.7004 207.087C51.3041 207.364 50.9951 207.76 50.7735 208.276C50.5519 208.787 50.4411 209.392 50.4411 210.091C50.4411 210.807 50.5498 211.425 50.7671 211.945C50.9845 212.464 51.2913 212.867 51.6876 213.153C52.0882 213.438 52.559 213.581 53.1002 213.581C53.4624 213.581 53.7906 213.515 54.0846 213.383C54.3829 213.246 54.6322 213.053 54.8325 212.801C55.037 212.55 55.1798 212.247 55.2607 211.893H57.1208C57.0526 212.528 56.846 213.095 56.5008 213.594C56.1556 214.092 55.6933 214.484 55.1137 214.77C54.5384 215.055 53.863 215.198 53.0874 215.198ZM63.3003 215.198C62.3799 215.198 61.5766 214.987 60.8905 214.565C60.2045 214.143 59.6718 213.553 59.2925 212.795C58.9133 212.036 58.7236 211.15 58.7236 210.136C58.7236 209.117 58.9133 208.227 59.2925 207.464C59.6718 206.701 60.2045 206.109 60.8905 205.687C61.5766 205.265 62.3799 205.054 63.3003 205.054C64.2208 205.054 65.0241 205.265 65.7101 205.687C66.3962 206.109 66.9289 206.701 67.3082 207.464C67.6874 208.227 67.877 209.117 67.877 210.136C67.877 211.15 67.6874 212.036 67.3082 212.795C66.9289 213.553 66.3962 214.143 65.7101 214.565C65.0241 214.987 64.2208 215.198 63.3003 215.198ZM63.3067 213.594C63.9033 213.594 64.3976 213.436 64.7897 213.121C65.1817 212.805 65.4715 212.386 65.659 211.862C65.8508 211.337 65.9466 210.76 65.9466 210.129C65.9466 209.503 65.8508 208.928 65.659 208.403C65.4715 207.875 65.1817 207.451 64.7897 207.131C64.3976 206.812 63.9033 206.652 63.3067 206.652C62.7059 206.652 62.2073 206.812 61.811 207.131C61.4189 207.451 61.127 207.875 60.9353 208.403C60.7478 208.928 60.654 209.503 60.654 210.129C60.654 210.76 60.7478 211.337 60.9353 211.862C61.127 212.386 61.4189 212.805 61.811 213.121C62.2073 213.436 62.7059 213.594 63.3067 213.594ZM71.9216 209.17V215H70.0104V205.182H71.8449V206.78H71.9664C72.1922 206.26 72.5459 205.842 73.0274 205.527C73.5132 205.212 74.1247 205.054 74.8619 205.054C75.531 205.054 76.1169 205.195 76.6198 205.476C77.1226 205.753 77.5125 206.166 77.7895 206.716C78.0665 207.266 78.205 207.945 78.205 208.755V215H76.2938V208.985C76.2938 208.273 76.1084 207.717 75.7377 207.317C75.3669 206.912 74.8577 206.71 74.21 206.71C73.7668 206.71 73.3726 206.805 73.0274 206.997C72.6865 207.189 72.4159 207.47 72.2156 207.841C72.0196 208.207 71.9216 208.651 71.9216 209.17ZM88.1254 207.579L86.3932 207.886C86.3208 207.664 86.2057 207.453 86.048 207.253C85.8946 207.053 85.6858 206.888 85.4216 206.761C85.1574 206.633 84.8271 206.569 84.4308 206.569C83.8896 206.569 83.4379 206.69 83.0757 206.933C82.7135 207.172 82.5324 207.481 82.5324 207.86C82.5324 208.188 82.6539 208.452 82.8968 208.653C83.1396 208.853 83.5317 209.017 84.0729 209.145L85.6325 209.503C86.536 209.712 87.2093 210.033 87.6524 210.468C88.0956 210.903 88.3172 211.467 88.3172 212.162C88.3172 212.75 88.1468 213.274 87.8058 213.734C87.4692 214.19 86.9983 214.548 86.3932 214.808C85.7923 215.068 85.0956 215.198 84.303 215.198C83.2036 215.198 82.3066 214.964 81.6119 214.495C80.9173 214.022 80.4912 213.351 80.3335 212.482L82.1808 212.2C82.2959 212.682 82.5324 213.046 82.8904 213.293C83.2483 213.536 83.7149 213.658 84.2902 213.658C84.9166 213.658 85.4173 213.528 85.7923 213.268C86.1673 213.004 86.3548 212.682 86.3548 212.303C86.3548 211.996 86.2398 211.738 86.0097 211.529C85.7838 211.32 85.4365 211.163 84.9678 211.056L83.3058 210.692C82.3896 210.483 81.7121 210.151 81.2732 209.695C80.8385 209.239 80.6212 208.661 80.6212 207.962C80.6212 207.383 80.7831 206.876 81.107 206.441C81.4308 206.006 81.8783 205.668 82.4493 205.425C83.0203 205.178 83.6744 205.054 84.4117 205.054C85.4727 205.054 86.308 205.284 86.9173 205.744C87.5267 206.2 87.9294 206.812 88.1254 207.579ZM94.6501 215.198C93.6828 215.198 92.8497 214.991 92.1508 214.578C91.4562 214.161 90.9193 213.575 90.54 212.82C90.165 212.062 89.9775 211.173 89.9775 210.155C89.9775 209.149 90.165 208.263 90.54 207.496C90.9193 206.729 91.4477 206.13 92.1253 205.7C92.8071 205.269 93.604 205.054 94.5159 205.054C95.0699 205.054 95.6068 205.146 96.1267 205.329C96.6466 205.512 97.1132 205.8 97.5265 206.192C97.9399 206.584 98.2659 207.093 98.5045 207.719C98.7432 208.342 98.8625 209.098 98.8625 209.989V210.666H91.0578V209.234H96.9896C96.9896 208.732 96.8873 208.286 96.6828 207.898C96.4782 207.506 96.1906 207.197 95.8199 206.972C95.4534 206.746 95.023 206.633 94.5287 206.633C93.9917 206.633 93.523 206.765 93.1224 207.029C92.7261 207.289 92.4193 207.63 92.202 208.052C91.9889 208.469 91.8824 208.923 91.8824 209.413V210.532C91.8824 211.188 91.9974 211.746 92.2275 212.207C92.4619 212.667 92.7879 213.018 93.2055 213.261C93.6231 213.5 94.1111 213.619 94.6693 213.619C95.0315 213.619 95.3618 213.568 95.6601 213.466C95.9584 213.359 96.2162 213.202 96.4335 212.993C96.6508 212.784 96.817 212.526 96.9321 212.219L98.741 212.545C98.5961 213.078 98.3362 213.545 97.9612 213.945C97.5905 214.342 97.1238 214.651 96.5613 214.872C96.0031 215.089 95.366 215.198 94.6501 215.198ZM105.119 215.198C104.168 215.198 103.35 214.983 102.664 214.553C101.982 214.118 101.458 213.519 101.092 212.756C100.725 211.994 100.542 211.12 100.542 210.136C100.542 209.138 100.729 208.259 101.104 207.496C101.479 206.729 102.008 206.13 102.69 205.7C103.372 205.269 104.175 205.054 105.1 205.054C105.845 205.054 106.51 205.192 107.094 205.469C107.678 205.742 108.149 206.126 108.506 206.62C108.869 207.114 109.084 207.692 109.152 208.352H107.292C107.19 207.892 106.955 207.496 106.589 207.163C106.227 206.831 105.741 206.665 105.131 206.665C104.599 206.665 104.132 206.805 103.732 207.087C103.335 207.364 103.026 207.76 102.805 208.276C102.583 208.787 102.472 209.392 102.472 210.091C102.472 210.807 102.581 211.425 102.798 211.945C103.016 212.464 103.323 212.867 103.719 213.153C104.119 213.438 104.59 213.581 105.131 213.581C105.494 213.581 105.822 213.515 106.116 213.383C106.414 213.246 106.663 213.053 106.864 212.801C107.068 212.55 107.211 212.247 107.292 211.893H109.152C109.084 212.528 108.877 213.095 108.532 213.594C108.187 214.092 107.725 214.484 107.145 214.77C106.57 215.055 105.894 215.198 105.119 215.198ZM115.779 205.182V206.716H110.416V205.182H115.779ZM111.854 202.83H113.766V212.117C113.766 212.488 113.821 212.767 113.932 212.955C114.043 213.138 114.185 213.263 114.36 213.332C114.539 213.396 114.733 213.428 114.942 213.428C115.095 213.428 115.229 213.417 115.344 213.396C115.459 213.374 115.549 213.357 115.613 213.344L115.958 214.923C115.847 214.966 115.69 215.009 115.485 215.051C115.28 215.098 115.025 215.124 114.718 215.128C114.215 215.136 113.746 215.047 113.312 214.859C112.877 214.672 112.525 214.382 112.257 213.99C111.989 213.598 111.854 213.106 111.854 212.513V202.83ZM122.019 215.198C121.052 215.198 120.219 214.991 119.52 214.578C118.825 214.161 118.288 213.575 117.909 212.82C117.534 212.062 117.347 211.173 117.347 210.155C117.347 209.149 117.534 208.263 117.909 207.496C118.288 206.729 118.817 206.13 119.494 205.7C120.176 205.269 120.973 205.054 121.885 205.054C122.439 205.054 122.976 205.146 123.496 205.329C124.016 205.512 124.482 205.8 124.896 206.192C125.309 206.584 125.635 207.093 125.874 207.719C126.112 208.342 126.232 209.098 126.232 209.989V210.666H118.427V209.234H124.359C124.359 208.732 124.256 208.286 124.052 207.898C123.847 207.506 123.56 207.197 123.189 206.972C122.823 206.746 122.392 206.633 121.898 206.633C121.361 206.633 120.892 206.765 120.492 207.029C120.095 207.289 119.788 207.63 119.571 208.052C119.358 208.469 119.252 208.923 119.252 209.413V210.532C119.252 211.188 119.367 211.746 119.597 212.207C119.831 212.667 120.157 213.018 120.575 213.261C120.992 213.5 121.48 213.619 122.038 213.619C122.401 213.619 122.731 213.568 123.029 213.466C123.328 213.359 123.585 213.202 123.803 212.993C124.02 212.784 124.186 212.526 124.301 212.219L126.11 212.545C125.965 213.078 125.705 213.545 125.33 213.945C124.96 214.342 124.493 214.651 123.93 214.872C123.372 215.089 122.735 215.198 122.019 215.198ZM132.935 205.182V206.716H127.572V205.182H132.935ZM129.011 202.83H130.922V212.117C130.922 212.488 130.977 212.767 131.088 212.955C131.199 213.138 131.342 213.263 131.516 213.332C131.695 213.396 131.889 213.428 132.098 213.428C132.251 213.428 132.386 213.417 132.501 213.396C132.616 213.374 132.705 213.357 132.769 213.344L133.114 214.923C133.003 214.966 132.846 215.009 132.641 215.051C132.437 215.098 132.181 215.124 131.874 215.128C131.371 215.136 130.903 215.047 130.468 214.859C130.033 214.672 129.682 214.382 129.413 213.99C129.145 213.598 129.011 213.106 129.011 212.513V202.83ZM141.269 210.928V205.182H143.187V215H141.307V213.3H141.205C140.979 213.824 140.617 214.261 140.118 214.61C139.624 214.955 139.008 215.128 138.271 215.128C137.64 215.128 137.082 214.989 136.596 214.712C136.115 214.431 135.736 214.016 135.459 213.466C135.186 212.916 135.049 212.237 135.049 211.427V205.182H136.961V211.197C136.961 211.866 137.146 212.398 137.517 212.795C137.888 213.191 138.369 213.389 138.961 213.389C139.319 213.389 139.675 213.3 140.029 213.121C140.387 212.942 140.683 212.671 140.917 212.309C141.156 211.947 141.273 211.487 141.269 210.928ZM145.755 215V205.182H147.602V206.741H147.704C147.883 206.213 148.198 205.798 148.65 205.495C149.106 205.188 149.622 205.035 150.197 205.035C150.316 205.035 150.457 205.039 150.619 205.048C150.785 205.056 150.915 205.067 151.009 205.08V206.908C150.932 206.886 150.796 206.863 150.6 206.837C150.404 206.808 150.208 206.793 150.012 206.793C149.56 206.793 149.157 206.888 148.804 207.08C148.454 207.268 148.177 207.53 147.973 207.866C147.768 208.199 147.666 208.578 147.666 209.004V215H145.755ZM160.284 215.217C159.661 215.217 159.099 215.102 158.596 214.872C158.093 214.638 157.695 214.299 157.401 213.856C157.111 213.413 156.966 212.869 156.966 212.226C156.966 211.672 157.073 211.216 157.286 210.858C157.499 210.5 157.786 210.217 158.149 210.008C158.511 209.799 158.916 209.641 159.363 209.535C159.811 209.428 160.267 209.347 160.731 209.292C161.319 209.224 161.796 209.168 162.163 209.126C162.529 209.079 162.796 209.004 162.962 208.902C163.128 208.8 163.211 208.634 163.211 208.403V208.359C163.211 207.8 163.054 207.368 162.738 207.061C162.427 206.754 161.963 206.601 161.345 206.601C160.701 206.601 160.194 206.744 159.823 207.029C159.457 207.31 159.203 207.624 159.063 207.969L157.267 207.56C157.48 206.963 157.791 206.482 158.2 206.115C158.613 205.744 159.088 205.476 159.625 205.31C160.162 205.139 160.727 205.054 161.319 205.054C161.711 205.054 162.127 205.101 162.566 205.195C163.009 205.284 163.422 205.45 163.806 205.693C164.193 205.936 164.511 206.283 164.758 206.735C165.005 207.183 165.129 207.764 165.129 208.48V215H163.262V213.658H163.186C163.062 213.905 162.877 214.148 162.63 214.386C162.382 214.625 162.065 214.823 161.677 214.981C161.289 215.138 160.825 215.217 160.284 215.217ZM160.699 213.683C161.228 213.683 161.679 213.579 162.054 213.37C162.434 213.161 162.721 212.888 162.917 212.552C163.117 212.211 163.218 211.847 163.218 211.459V210.193C163.149 210.261 163.017 210.325 162.821 210.385C162.63 210.44 162.41 210.489 162.163 210.532C161.916 210.57 161.675 210.607 161.441 210.641C161.206 210.67 161.01 210.696 160.853 210.717C160.482 210.764 160.143 210.843 159.836 210.954C159.534 211.065 159.291 211.224 159.108 211.433C158.929 211.638 158.839 211.911 158.839 212.251C158.839 212.724 159.014 213.082 159.363 213.325C159.713 213.564 160.158 213.683 160.699 213.683ZM171.35 215.192C170.557 215.192 169.85 214.989 169.228 214.585C168.61 214.175 168.124 213.594 167.77 212.839C167.421 212.081 167.246 211.171 167.246 210.11C167.246 209.049 167.423 208.141 167.777 207.387C168.135 206.633 168.625 206.055 169.247 205.655C169.869 205.254 170.574 205.054 171.363 205.054C171.972 205.054 172.462 205.156 172.833 205.361C173.208 205.561 173.498 205.795 173.702 206.064C173.911 206.332 174.073 206.569 174.188 206.773H174.303V201.909H176.214V215H174.348V213.472H174.188C174.073 213.681 173.907 213.92 173.689 214.188C173.476 214.457 173.182 214.691 172.807 214.891C172.432 215.092 171.946 215.192 171.35 215.192ZM171.772 213.562C172.321 213.562 172.786 213.417 173.165 213.127C173.549 212.833 173.839 212.426 174.035 211.906C174.235 211.386 174.335 210.781 174.335 210.091C174.335 209.409 174.237 208.812 174.041 208.301C173.845 207.79 173.557 207.391 173.178 207.106C172.799 206.82 172.33 206.678 171.772 206.678C171.196 206.678 170.717 206.827 170.334 207.125C169.95 207.423 169.66 207.83 169.464 208.346C169.272 208.862 169.177 209.443 169.177 210.091C169.177 210.747 169.275 211.337 169.471 211.862C169.667 212.386 169.956 212.801 170.34 213.108C170.728 213.411 171.205 213.562 171.772 213.562ZM178.942 215V205.182H180.853V215H178.942ZM179.907 203.667C179.575 203.667 179.289 203.556 179.051 203.335C178.816 203.109 178.699 202.84 178.699 202.529C178.699 202.214 178.816 201.945 179.051 201.724C179.289 201.498 179.575 201.385 179.907 201.385C180.24 201.385 180.523 201.498 180.757 201.724C180.996 201.945 181.115 202.214 181.115 202.529C181.115 202.84 180.996 203.109 180.757 203.335C180.523 203.556 180.24 203.667 179.907 203.667ZM183.424 218.682V205.182H185.291V206.773H185.451C185.562 206.569 185.721 206.332 185.93 206.064C186.139 205.795 186.429 205.561 186.799 205.361C187.17 205.156 187.66 205.054 188.27 205.054C189.062 205.054 189.77 205.254 190.392 205.655C191.014 206.055 191.502 206.633 191.856 207.387C192.214 208.141 192.392 209.049 192.392 210.11C192.392 211.171 192.216 212.081 191.862 212.839C191.508 213.594 191.022 214.175 190.405 214.585C189.787 214.989 189.081 215.192 188.289 215.192C187.692 215.192 187.204 215.092 186.825 214.891C186.45 214.691 186.156 214.457 185.943 214.188C185.73 213.92 185.566 213.681 185.451 213.472H185.336V218.682H183.424ZM185.297 210.091C185.297 210.781 185.397 211.386 185.598 211.906C185.798 212.426 186.088 212.833 186.467 213.127C186.846 213.417 187.311 213.562 187.861 213.562C188.432 213.562 188.909 213.411 189.292 213.108C189.676 212.801 189.966 212.386 190.162 211.862C190.362 211.337 190.462 210.747 190.462 210.091C190.462 209.443 190.364 208.862 190.168 208.346C189.976 207.83 189.687 207.423 189.299 207.125C188.915 206.827 188.436 206.678 187.861 206.678C187.307 206.678 186.838 206.82 186.454 207.106C186.075 207.391 185.787 207.79 185.591 208.301C185.395 208.812 185.297 209.409 185.297 210.091ZM194.534 215V205.182H196.445V215H194.534ZM195.499 203.667C195.167 203.667 194.881 203.556 194.642 203.335C194.408 203.109 194.291 202.84 194.291 202.529C194.291 202.214 194.408 201.945 194.642 201.724C194.881 201.498 195.167 201.385 195.499 201.385C195.831 201.385 196.115 201.498 196.349 201.724C196.588 201.945 196.707 202.214 196.707 202.529C196.707 202.84 196.588 203.109 196.349 203.335C196.115 203.556 195.831 203.667 195.499 203.667ZM206.373 207.579L204.641 207.886C204.569 207.664 204.454 207.453 204.296 207.253C204.143 207.053 203.934 206.888 203.67 206.761C203.405 206.633 203.075 206.569 202.679 206.569C202.138 206.569 201.686 206.69 201.324 206.933C200.962 207.172 200.78 207.481 200.78 207.86C200.78 208.188 200.902 208.452 201.145 208.653C201.388 208.853 201.78 209.017 202.321 209.145L203.881 209.503C204.784 209.712 205.457 210.033 205.9 210.468C206.344 210.903 206.565 211.467 206.565 212.162C206.565 212.75 206.395 213.274 206.054 213.734C205.717 214.19 205.246 214.548 204.641 214.808C204.04 215.068 203.344 215.198 202.551 215.198C201.452 215.198 200.555 214.964 199.86 214.495C199.165 214.022 198.739 213.351 198.582 212.482L200.429 212.2C200.544 212.682 200.78 213.046 201.138 213.293C201.496 213.536 201.963 213.658 202.538 213.658C203.165 213.658 203.665 213.528 204.04 213.268C204.415 213.004 204.603 212.682 204.603 212.303C204.603 211.996 204.488 211.738 204.258 211.529C204.032 211.32 203.685 211.163 203.216 211.056L201.554 210.692C200.638 210.483 199.96 210.151 199.521 209.695C199.087 209.239 198.869 208.661 198.869 207.962C198.869 207.383 199.031 206.876 199.355 206.441C199.679 206.006 200.126 205.668 200.697 205.425C201.268 205.178 201.922 205.054 202.66 205.054C203.721 205.054 204.556 205.284 205.165 205.744C205.775 206.2 206.177 206.812 206.373 207.579ZM212.802 215.198C211.852 215.198 211.034 214.983 210.348 214.553C209.666 214.118 209.142 213.519 208.775 212.756C208.409 211.994 208.226 211.12 208.226 210.136C208.226 209.138 208.413 208.259 208.788 207.496C209.163 206.729 209.691 206.13 210.373 205.7C211.055 205.269 211.858 205.054 212.783 205.054C213.529 205.054 214.194 205.192 214.777 205.469C215.361 205.742 215.832 206.126 216.19 206.62C216.552 207.114 216.767 207.692 216.836 208.352H214.976C214.873 207.892 214.639 207.496 214.272 207.163C213.91 206.831 213.424 206.665 212.815 206.665C212.282 206.665 211.816 206.805 211.415 207.087C211.019 207.364 210.71 207.76 210.488 208.276C210.267 208.787 210.156 209.392 210.156 210.091C210.156 210.807 210.265 211.425 210.482 211.945C210.699 212.464 211.006 212.867 211.402 213.153C211.803 213.438 212.274 213.581 212.815 213.581C213.177 213.581 213.505 213.515 213.799 213.383C214.098 213.246 214.347 213.053 214.547 212.801C214.752 212.55 214.895 212.247 214.976 211.893H216.836C216.767 212.528 216.561 213.095 216.216 213.594C215.87 214.092 215.408 214.484 214.829 214.77C214.253 215.055 213.578 215.198 212.802 215.198ZM218.88 215V205.182H220.791V215H218.88ZM219.845 203.667C219.512 203.667 219.227 203.556 218.988 203.335C218.754 203.109 218.637 202.84 218.637 202.529C218.637 202.214 218.754 201.945 218.988 201.724C219.227 201.498 219.512 201.385 219.845 201.385C220.177 201.385 220.46 201.498 220.695 201.724C220.934 201.945 221.053 202.214 221.053 202.529C221.053 202.84 220.934 203.109 220.695 203.335C220.46 203.556 220.177 203.667 219.845 203.667ZM225.273 209.17V215H223.362V205.182H225.196V206.78H225.318C225.544 206.26 225.897 205.842 226.379 205.527C226.865 205.212 227.476 205.054 228.214 205.054C228.883 205.054 229.468 205.195 229.971 205.476C230.474 205.753 230.864 206.166 231.141 206.716C231.418 207.266 231.557 207.945 231.557 208.755V215H229.645V208.985C229.645 208.273 229.46 207.717 229.089 207.317C228.718 206.912 228.209 206.71 227.562 206.71C227.118 206.71 226.724 206.805 226.379 206.997C226.038 207.189 225.767 207.47 225.567 207.841C225.371 208.207 225.273 208.651 225.273 209.17ZM238.236 218.886C237.456 218.886 236.785 218.784 236.223 218.58C235.665 218.375 235.209 218.104 234.855 217.768C234.501 217.431 234.237 217.063 234.062 216.662L235.705 215.984C235.82 216.172 235.973 216.37 236.165 216.579C236.361 216.792 236.625 216.973 236.958 217.122C237.294 217.271 237.727 217.346 238.255 217.346C238.98 217.346 239.579 217.169 240.052 216.815C240.525 216.466 240.761 215.908 240.761 215.141V213.21H240.64C240.525 213.419 240.358 213.651 240.141 213.907C239.928 214.163 239.634 214.384 239.259 214.572C238.884 214.759 238.396 214.853 237.795 214.853C237.02 214.853 236.321 214.672 235.699 214.31C235.081 213.943 234.591 213.404 234.228 212.692C233.87 211.977 233.691 211.097 233.691 210.053C233.691 209.009 233.868 208.114 234.222 207.368C234.58 206.622 235.07 206.051 235.692 205.655C236.314 205.254 237.02 205.054 237.808 205.054C238.417 205.054 238.91 205.156 239.285 205.361C239.66 205.561 239.951 205.795 240.16 206.064C240.373 206.332 240.537 206.569 240.652 206.773H240.793V205.182H242.666V215.217C242.666 216.061 242.47 216.754 242.078 217.295C241.686 217.836 241.155 218.237 240.486 218.496C239.821 218.756 239.071 218.886 238.236 218.886ZM238.217 213.268C238.767 213.268 239.231 213.14 239.611 212.884C239.994 212.624 240.284 212.254 240.48 211.772C240.68 211.286 240.78 210.705 240.78 210.027C240.78 209.366 240.682 208.785 240.486 208.282C240.29 207.779 240.003 207.387 239.623 207.106C239.244 206.82 238.775 206.678 238.217 206.678C237.642 206.678 237.162 206.827 236.779 207.125C236.395 207.419 236.106 207.82 235.91 208.327C235.718 208.834 235.622 209.401 235.622 210.027C235.622 210.67 235.72 211.235 235.916 211.721C236.112 212.207 236.402 212.586 236.785 212.859C237.173 213.131 237.65 213.268 238.217 213.268ZM254.224 215.198C253.257 215.198 252.424 214.991 251.725 214.578C251.03 214.161 250.494 213.575 250.114 212.82C249.739 212.062 249.552 211.173 249.552 210.155C249.552 209.149 249.739 208.263 250.114 207.496C250.494 206.729 251.022 206.13 251.699 205.7C252.381 205.269 253.178 205.054 254.09 205.054C254.644 205.054 255.181 205.146 255.701 205.329C256.221 205.512 256.687 205.8 257.101 206.192C257.514 206.584 257.84 207.093 258.079 207.719C258.317 208.342 258.437 209.098 258.437 209.989V210.666H250.632V209.234H256.564C256.564 208.732 256.462 208.286 256.257 207.898C256.052 207.506 255.765 207.197 255.394 206.972C255.028 206.746 254.597 206.633 254.103 206.633C253.566 206.633 253.097 206.765 252.697 207.029C252.3 207.289 251.994 207.63 251.776 208.052C251.563 208.469 251.457 208.923 251.457 209.413V210.532C251.457 211.188 251.572 211.746 251.802 212.207C252.036 212.667 252.362 213.018 252.78 213.261C253.197 213.5 253.685 213.619 254.244 213.619C254.606 213.619 254.936 213.568 255.234 213.466C255.533 213.359 255.79 213.202 256.008 212.993C256.225 212.784 256.391 212.526 256.506 212.219L258.315 212.545C258.17 213.078 257.91 213.545 257.535 213.945C257.165 214.342 256.698 214.651 256.136 214.872C255.577 215.089 254.94 215.198 254.224 215.198ZM262.468 201.909V215H260.557V201.909H262.468ZM265.04 215V205.182H266.951V215H265.04ZM266.005 203.667C265.672 203.667 265.387 203.556 265.148 203.335C264.914 203.109 264.797 202.84 264.797 202.529C264.797 202.214 264.914 201.945 265.148 201.724C265.387 201.498 265.672 201.385 266.005 201.385C266.337 201.385 266.621 201.498 266.855 201.724C267.094 201.945 267.213 202.214 267.213 202.529C267.213 202.84 267.094 203.109 266.855 203.335C266.621 203.556 266.337 203.667 266.005 203.667ZM274.105 205.182V206.716H268.742V205.182H274.105ZM270.18 202.83H272.092V212.117C272.092 212.488 272.147 212.767 272.258 212.955C272.369 213.138 272.511 213.263 272.686 213.332C272.865 213.396 273.059 213.428 273.268 213.428C273.421 213.428 273.555 213.417 273.671 213.396C273.786 213.374 273.875 213.357 273.939 213.344L274.284 214.923C274.173 214.966 274.016 215.009 273.811 215.051C273.607 215.098 273.351 215.124 273.044 215.128C272.541 215.136 272.073 215.047 271.638 214.859C271.203 214.672 270.852 214.382 270.583 213.99C270.315 213.598 270.18 213.106 270.18 212.513V202.83ZM277.479 215.121C277.129 215.121 276.829 214.998 276.577 214.751C276.326 214.499 276.2 214.197 276.2 213.843C276.2 213.494 276.326 213.195 276.577 212.948C276.829 212.697 277.129 212.571 277.479 212.571C277.828 212.571 278.128 212.697 278.38 212.948C278.631 213.195 278.757 213.494 278.757 213.843C278.757 214.077 278.697 214.293 278.578 214.489C278.463 214.68 278.31 214.834 278.118 214.949C277.926 215.064 277.713 215.121 277.479 215.121Z" fill="#1A191E" fill-opacity="0.5"/>
<rect x="48" y="282" width="160" height="160" rx="16" fill="#E8F2EE"/>
<path d="M156.444 381.726C155.703 380.014 154.852 378.156 152.889 378.156H151.111C153.074 378.156 154.667 376.558 154.667 374.587V344.236C154.668 343.768 154.576 343.305 154.398 342.872C154.22 342.44 153.958 342.046 153.628 341.715C153.298 341.384 152.906 341.12 152.474 340.94C152.042 340.761 151.579 340.667 151.111 340.667H104.889C102.926 340.667 101.333 342.265 101.333 344.236V374.587C101.333 376.558 102.926 378.156 104.889 378.156H103.111C101.148 378.156 100.148 379.941 99.5556 381.726L96 390.428C96 392.402 97.5929 394 99.5556 394H156.444C158.407 394 160 392.402 160 390.43L156.444 381.726Z" fill="#CCD6DD"/>
<path d="M96.0146 390.578L96.0253 390.679L96.3275 391.909C96.6081 392.531 97.0618 393.059 97.6343 393.429C98.2068 393.8 98.8739 393.998 99.556 394H156.445C157.363 393.997 158.244 393.639 158.904 393.001C159.564 392.363 159.952 391.495 159.986 390.578H96.0146Z" fill="#9AAAB4"/>
<path d="M151.111 372.8C151.111 373.787 150.316 374.585 149.333 374.585H106.666C105.685 374.585 104.889 373.787 104.889 372.8V346.023C104.889 345.037 105.685 344.238 106.666 344.238H149.333C150.316 344.238 151.111 345.038 151.111 346.023V372.8Z" fill="#5DADEC"/>
<path d="M154.5 385.186L153.149 381.319C152.724 380.501 152.02 379.831 151.037 379.831H105.085C104.103 379.831 103.474 380.556 103.03 381.673L101.806 385.187C101.417 386.247 102.603 386.972 103.584 386.972H117.056C117.056 386.972 118.722 386.889 119.017 385.891C119.358 384.739 119.755 383.004 119.84 382.699C119.972 382.229 120.53 381.755 121.362 381.755H136.612C137.501 381.755 137.938 382.204 138.054 382.761C138.128 383.123 138.608 384.789 138.832 385.929C139.03 386.944 141.003 386.971 141.003 386.971H152.726C153.705 386.971 154.889 386.133 154.5 385.186Z" fill="#AEBBC1"/>
<path d="M135.778 388.868H121.945C121.278 388.868 120.988 388.258 121.084 387.668C121.18 387.079 121.723 384.48 121.765 384.178C121.806 383.874 122.252 383.511 122.697 383.511H135.168C135.696 383.511 136.039 383.801 136.146 384.381C136.251 384.962 136.683 387.298 136.716 387.831C136.75 388.366 136.416 388.868 135.778 388.868Z" fill="#9AAAB4"/>
<path d="M49.278 469V456.4H51.186L57.504 465.886V456.4H59.412V469H57.504L51.186 459.514V469H49.278ZM65.5334 469.216C64.6574 469.216 63.8774 469.024 63.1934 468.64C62.5214 468.244 61.9934 467.698 61.6094 467.002C61.2254 466.306 61.0334 465.496 61.0334 464.572C61.0334 463.636 61.2194 462.814 61.5914 462.106C61.9754 461.398 62.5034 460.846 63.1754 460.45C63.8594 460.054 64.6514 459.856 65.5514 459.856C66.4274 459.856 67.1894 460.054 67.8374 460.45C68.4854 460.834 68.9894 461.35 69.3494 461.998C69.7094 462.646 69.8894 463.36 69.8894 464.14C69.8894 464.26 69.8834 464.392 69.8714 464.536C69.8714 464.668 69.8654 464.818 69.8534 464.986H62.9054C62.9654 465.85 63.2474 466.51 63.7514 466.966C64.2674 467.41 64.8614 467.632 65.5334 467.632C66.0734 467.632 66.5234 467.512 66.8834 467.272C67.2554 467.02 67.5314 466.684 67.7114 466.264H69.6194C69.3794 467.104 68.8994 467.806 68.1794 468.37C67.4714 468.934 66.5894 469.216 65.5334 469.216ZM65.5334 461.422C64.8974 461.422 64.3334 461.614 63.8414 461.998C63.3494 462.37 63.0494 462.934 62.9414 463.69H67.9814C67.9454 462.994 67.6994 462.442 67.2434 462.034C66.7874 461.626 66.2174 461.422 65.5334 461.422ZM72.7596 469L70.1316 460.072H72.0396L73.7676 466.804L75.7116 460.072H77.8356L79.7796 466.804L81.5076 460.072H83.4156L80.7876 469H78.8256L76.7736 461.98L74.7216 469H72.7596ZM88.5145 469V456.4H90.4225V467.488H96.1465V469H88.5145ZM100.612 469.216C99.856 469.216 99.232 469.09 98.74 468.838C98.248 468.586 97.882 468.256 97.642 467.848C97.402 467.428 97.282 466.972 97.282 466.48C97.282 465.616 97.618 464.932 98.29 464.428C98.962 463.924 99.922 463.672 101.17 463.672H103.51V463.51C103.51 462.814 103.318 462.292 102.934 461.944C102.562 461.596 102.076 461.422 101.476 461.422C100.948 461.422 100.486 461.554 100.09 461.818C99.706 462.07 99.472 462.448 99.388 462.952H97.48C97.54 462.304 97.756 461.752 98.128 461.296C98.512 460.828 98.992 460.474 99.568 460.234C100.156 459.982 100.798 459.856 101.494 459.856C102.742 459.856 103.708 460.186 104.392 460.846C105.076 461.494 105.418 462.382 105.418 463.51V469H103.762L103.6 467.47C103.348 467.962 102.982 468.376 102.502 468.712C102.022 469.048 101.392 469.216 100.612 469.216ZM100.99 467.668C101.506 467.668 101.938 467.548 102.286 467.308C102.646 467.056 102.922 466.726 103.114 466.318C103.318 465.91 103.444 465.46 103.492 464.968H101.368C100.612 464.968 100.072 465.1 99.748 465.364C99.436 465.628 99.28 465.958 99.28 466.354C99.28 466.762 99.43 467.086 99.73 467.326C100.042 467.554 100.462 467.668 100.99 467.668ZM107.103 472.96V460.072H108.813L109.011 461.458C109.299 461.038 109.695 460.666 110.199 460.342C110.703 460.018 111.351 459.856 112.143 459.856C113.007 459.856 113.769 460.06 114.429 460.468C115.089 460.876 115.605 461.434 115.977 462.142C116.361 462.85 116.553 463.654 116.553 464.554C116.553 465.454 116.361 466.258 115.977 466.966C115.605 467.662 115.089 468.214 114.429 468.622C113.769 469.018 113.001 469.216 112.125 469.216C111.429 469.216 110.811 469.078 110.271 468.802C109.743 468.526 109.323 468.136 109.011 467.632V472.96H107.103ZM111.801 467.56C112.617 467.56 113.289 467.284 113.817 466.732C114.345 466.168 114.609 465.436 114.609 464.536C114.609 463.948 114.489 463.426 114.249 462.97C114.009 462.514 113.679 462.16 113.259 461.908C112.839 461.644 112.353 461.512 111.801 461.512C110.985 461.512 110.313 461.794 109.785 462.358C109.269 462.922 109.011 463.648 109.011 464.536C109.011 465.436 109.269 466.168 109.785 466.732C110.313 467.284 110.985 467.56 111.801 467.56ZM121.469 469C120.593 469 119.897 468.79 119.381 468.37C118.865 467.938 118.607 467.176 118.607 466.084V461.674H117.077V460.072H118.607L118.841 457.804H120.515V460.072H123.035V461.674H120.515V466.084C120.515 466.576 120.617 466.918 120.821 467.11C121.037 467.29 121.403 467.38 121.919 467.38H122.945V469H121.469ZM128.41 469.216C127.558 469.216 126.79 469.024 126.106 468.64C125.434 468.244 124.9 467.698 124.504 467.002C124.108 466.294 123.91 465.472 123.91 464.536C123.91 463.6 124.108 462.784 124.504 462.088C124.912 461.38 125.458 460.834 126.142 460.45C126.826 460.054 127.588 459.856 128.428 459.856C129.28 459.856 130.042 460.054 130.714 460.45C131.398 460.834 131.938 461.38 132.334 462.088C132.742 462.784 132.946 463.6 132.946 464.536C132.946 465.472 132.742 466.294 132.334 467.002C131.938 467.698 131.398 468.244 130.714 468.64C130.03 469.024 129.262 469.216 128.41 469.216ZM128.41 467.578C128.866 467.578 129.286 467.464 129.67 467.236C130.066 467.008 130.384 466.672 130.624 466.228C130.864 465.772 130.984 465.208 130.984 464.536C130.984 463.864 130.864 463.306 130.624 462.862C130.396 462.406 130.084 462.064 129.688 461.836C129.304 461.608 128.884 461.494 128.428 461.494C127.972 461.494 127.546 461.608 127.15 461.836C126.766 462.064 126.454 462.406 126.214 462.862C125.974 463.306 125.854 463.864 125.854 464.536C125.854 465.208 125.974 465.772 126.214 466.228C126.454 466.672 126.766 467.008 127.15 467.236C127.534 467.464 127.954 467.578 128.41 467.578ZM134.469 472.96V460.072H136.179L136.377 461.458C136.665 461.038 137.061 460.666 137.565 460.342C138.069 460.018 138.717 459.856 139.509 459.856C140.373 459.856 141.135 460.06 141.795 460.468C142.455 460.876 142.971 461.434 143.343 462.142C143.727 462.85 143.919 463.654 143.919 464.554C143.919 465.454 143.727 466.258 143.343 466.966C142.971 467.662 142.455 468.214 141.795 468.622C141.135 469.018 140.367 469.216 139.491 469.216C138.795 469.216 138.177 469.078 137.637 468.802C137.109 468.526 136.689 468.136 136.377 467.632V472.96H134.469ZM139.167 467.56C139.983 467.56 140.655 467.284 141.183 466.732C141.711 466.168 141.975 465.436 141.975 464.536C141.975 463.948 141.855 463.426 141.615 462.97C141.375 462.514 141.045 462.16 140.625 461.908C140.205 461.644 139.719 461.512 139.167 461.512C138.351 461.512 137.679 461.794 137.151 462.358C136.635 462.922 136.377 463.648 136.377 464.536C136.377 465.436 136.635 466.168 137.151 466.732C137.679 467.284 138.351 467.56 139.167 467.56Z" fill="#1A191E"/>
<path d="M48.7656 493.011V491.768L53.1655 484.818H54.1449V486.648H53.5234L50.3764 491.629V491.709H56.407V493.011H48.7656ZM53.593 495V492.634L53.603 492.067V484.818H55.0597V495H53.593ZM61.6843 495.169C60.8988 495.166 60.2276 494.959 59.6708 494.548C59.114 494.137 58.6881 493.538 58.3931 492.753C58.0981 491.967 57.9506 491.021 57.9506 489.914C57.9506 488.81 58.0981 487.867 58.3931 487.085C58.6914 486.303 59.119 485.706 59.6758 485.295C60.2359 484.884 60.9054 484.679 61.6843 484.679C62.4632 484.679 63.131 484.886 63.6879 485.3C64.2447 485.711 64.6706 486.308 64.9656 487.09C65.2638 487.869 65.413 488.81 65.413 489.914C65.413 491.024 65.2655 491.972 64.9705 492.758C64.6755 493.54 64.2496 494.138 63.6928 494.553C63.136 494.964 62.4665 495.169 61.6843 495.169ZM61.6843 493.842C62.3737 493.842 62.9123 493.505 63.3001 492.832C63.6912 492.16 63.8867 491.187 63.8867 489.914C63.8867 489.069 63.7972 488.355 63.6183 487.771C63.4426 487.185 63.189 486.741 62.8576 486.439C62.5295 486.134 62.1384 485.982 61.6843 485.982C60.9982 485.982 60.4596 486.32 60.0685 486.996C59.6774 487.672 59.4802 488.645 59.4769 489.914C59.4769 490.763 59.5647 491.48 59.7404 492.067C59.9194 492.65 60.1729 493.093 60.5011 493.394C60.8292 493.692 61.2236 493.842 61.6843 493.842ZM70.7214 495.169C69.9359 495.166 69.2647 494.959 68.7079 494.548C68.1511 494.137 67.7252 493.538 67.4302 492.753C67.1352 491.967 66.9877 491.021 66.9877 489.914C66.9877 488.81 67.1352 487.867 67.4302 487.085C67.7285 486.303 68.1561 485.706 68.7129 485.295C69.273 484.884 69.9425 484.679 70.7214 484.679C71.5003 484.679 72.1681 484.886 72.725 485.3C73.2818 485.711 73.7077 486.308 74.0027 487.09C74.301 487.869 74.4501 488.81 74.4501 489.914C74.4501 491.024 74.3026 491.972 74.0076 492.758C73.7127 493.54 73.2868 494.138 72.7299 494.553C72.1731 494.964 71.5036 495.169 70.7214 495.169ZM70.7214 493.842C71.4108 493.842 71.9494 493.505 72.3372 492.832C72.7283 492.16 72.9238 491.187 72.9238 489.914C72.9238 489.069 72.8343 488.355 72.6554 487.771C72.4797 487.185 72.2261 486.741 71.8947 486.439C71.5666 486.134 71.1755 485.982 70.7214 485.982C70.0353 485.982 69.4967 486.32 69.1056 486.996C68.7145 487.672 68.5173 488.645 68.514 489.914C68.514 490.763 68.6019 491.48 68.7775 492.067C68.9565 492.65 69.21 493.093 69.5382 493.394C69.8663 493.692 70.2607 493.842 70.7214 493.842ZM79.3558 496.273V483.545H80.1712V496.273H79.3558ZM81.9062 487.493C81.8532 487.022 81.6345 486.658 81.25 486.399C80.8655 486.137 80.3816 486.006 79.7983 486.006C79.3807 486.006 79.0194 486.073 78.7145 486.205C78.4096 486.335 78.1726 486.513 78.0036 486.742C77.8378 486.968 77.755 487.224 77.755 487.513C77.755 487.755 77.8113 487.964 77.924 488.139C78.04 488.315 78.1908 488.462 78.3764 488.582C78.5653 488.698 78.7675 488.795 78.983 488.875C79.1984 488.951 79.4055 489.014 79.6044 489.064L80.5987 489.322C80.9235 489.402 81.2566 489.51 81.598 489.646C81.9394 489.781 82.2559 489.96 82.5476 490.183C82.8393 490.405 83.0746 490.68 83.2536 491.008C83.4358 491.336 83.527 491.729 83.527 492.186C83.527 492.763 83.3778 493.275 83.0795 493.722C82.7846 494.17 82.3554 494.523 81.7919 494.781C81.2318 495.04 80.554 495.169 79.7585 495.169C78.9962 495.169 78.3366 495.048 77.7798 494.806C77.223 494.564 76.7872 494.221 76.4723 493.777C76.1574 493.33 75.9834 492.799 75.9503 492.186H77.4915C77.5213 492.554 77.6406 492.861 77.8494 493.106C78.0616 493.348 78.3317 493.528 78.6598 493.648C78.9912 493.764 79.3542 493.822 79.7486 493.822C80.1828 493.822 80.5689 493.754 80.907 493.618C81.2483 493.479 81.5168 493.286 81.7124 493.041C81.9079 492.793 82.0057 492.503 82.0057 492.171C82.0057 491.87 81.9195 491.623 81.7472 491.43C81.5781 491.238 81.3478 491.079 81.0561 490.953C80.7678 490.827 80.4413 490.716 80.0767 490.62L78.8736 490.292C78.0582 490.07 77.4119 489.743 76.9347 489.312C76.4607 488.882 76.2237 488.312 76.2237 487.602C76.2237 487.016 76.3828 486.504 76.701 486.066C77.0192 485.629 77.45 485.289 77.9936 485.047C78.5372 484.802 79.1503 484.679 79.8331 484.679C80.5225 484.679 81.1307 484.8 81.6577 485.042C82.188 485.284 82.6056 485.617 82.9105 486.041C83.2154 486.462 83.3745 486.946 83.3878 487.493H81.9062Z" fill="#1A191E" fill-opacity="0.5"/>
<rect x="232" y="282" width="160" height="160" rx="16" fill="#F1DFDF"/>
<g clip-path="url(#clip1_722_1098)">
<path d="M290 374C293.914 374 297.266 376.27 298.91 379.544L305.864 376.066C302.976 370.116 296.892 366 289.832 366C287.315 366.001 284.827 366.537 282.534 367.574L285.87 374.914C287.165 374.317 288.574 374.005 290 374ZM334 374C336.934 374 339.544 375.286 341.376 377.296L347.17 372.026C345.502 370.132 343.45 368.615 341.15 367.576C338.851 366.537 336.356 366 333.832 366C326.68 366 320.528 370.222 317.686 376.3L324.982 379.744C326.586 376.36 330.006 374 334 374Z" fill="#EA596E"/>
<path d="M290 370C288.161 370 286.341 370.362 284.642 371.066C282.944 371.769 281.401 372.8 280.101 374.101C278.8 375.401 277.769 376.944 277.066 378.642C276.362 380.341 276 382.161 276 384C276 385.839 276.362 387.659 277.066 389.358C277.769 391.056 278.8 392.599 280.101 393.899C281.401 395.2 282.944 396.231 284.642 396.934C286.341 397.638 288.161 398 290 398C293.713 398 297.274 396.525 299.899 393.899C302.525 391.274 304 387.713 304 384C304 380.287 302.525 376.726 299.899 374.101C297.274 371.475 293.713 370 290 370ZM290 394C287.348 394 284.804 392.946 282.929 391.071C281.054 389.196 280 386.652 280 384C280 381.348 281.054 378.804 282.929 376.929C284.804 375.054 287.348 374 290 374C292.652 374 295.196 375.054 297.071 376.929C298.946 378.804 300 381.348 300 384C300 386.652 298.946 389.196 297.071 391.071C295.196 392.946 292.652 394 290 394ZM334 370C330.287 370 326.726 371.476 324.1 374.102C321.475 376.727 320 380.289 320 384.002C320 387.715 321.476 391.276 324.102 393.902C326.727 396.527 330.289 398.002 334.002 398.002C335.841 398.002 337.661 397.64 339.36 396.936C341.059 396.232 342.602 395.201 343.902 393.9C345.202 392.6 346.233 391.057 346.937 389.358C347.64 387.659 348.002 385.839 348.002 384C348.002 382.161 347.64 380.341 346.936 378.642C346.232 376.943 345.201 375.4 343.9 374.1C342.6 372.8 341.057 371.769 339.358 371.065C337.659 370.362 335.839 370 334 370ZM334 394C331.348 394 328.804 392.946 326.929 391.071C325.054 389.196 324 386.652 324 384C324 381.348 325.054 378.804 326.929 376.929C328.804 375.054 331.348 374 334 374C336.652 374 339.196 375.054 341.071 376.929C342.946 378.804 344 381.348 344 384C344 386.652 342.946 389.196 341.071 391.071C339.196 392.946 336.652 394 334 394Z" fill="#292F33"/>
<path d="M335.968 383.844C335.955 383.71 335.928 383.577 335.888 383.448C335.853 383.32 335.805 383.195 335.746 383.076C335.72 383.028 335.716 382.972 335.688 382.926L321.688 360.926C321.547 360.704 321.364 360.512 321.149 360.362C320.933 360.211 320.691 360.104 320.434 360.047C320.178 359.99 319.913 359.984 319.654 360.029C319.395 360.075 319.148 360.171 318.926 360.312C318.647 360.494 318.418 360.745 318.263 361.04C318.107 361.335 318.029 361.665 318.036 361.998H300C299.47 361.998 298.961 362.209 298.586 362.584C298.211 362.959 298 363.468 298 363.998C298 364.528 298.211 365.037 298.586 365.412C298.961 365.787 299.47 365.998 300 365.998H320C320.054 365.998 320.1 365.97 320.154 365.966L330.356 382H312C311.47 382 310.961 382.211 310.586 382.586C310.211 382.961 310 383.47 310 384C310 384.53 310.211 385.039 310.586 385.414C310.961 385.789 311.47 386 312 386H334.002C334.309 385.993 334.61 385.917 334.882 385.776C334.944 385.742 335.014 385.728 335.076 385.688C335.136 385.648 335.172 385.586 335.226 385.544C335.433 385.383 335.604 385.181 335.728 384.95C335.788 384.838 335.838 384.73 335.878 384.606C335.919 384.475 335.945 384.34 335.958 384.204C335.966 384.132 336 384.072 336 384C336 383.946 335.972 383.898 335.968 383.844Z" fill="#DD2E44"/>
<path d="M319.162 358L313.364 374.234L301.506 360.684C301.334 360.483 301.124 360.318 300.888 360.199C300.651 360.08 300.394 360.009 300.13 359.99C299.866 359.971 299.601 360.004 299.351 360.088C299.1 360.172 298.868 360.305 298.669 360.479C298.47 360.653 298.308 360.865 298.191 361.103C298.075 361.34 298.006 361.598 297.99 361.862C297.974 362.126 298.01 362.391 298.097 362.641C298.184 362.891 298.319 363.121 298.496 363.318L311.824 378.548L310.116 383.328C309.938 383.828 309.965 384.378 310.192 384.857C310.42 385.336 310.828 385.706 311.328 385.884C311.828 386.062 312.378 386.035 312.857 385.807C313.336 385.58 313.706 385.172 313.884 384.672L323.41 358H319.162Z" fill="#DD2E44"/>
<path d="M290 386C289.659 386 289.324 385.912 289.027 385.746C288.73 385.58 288.48 385.34 288.301 385.05C288.122 384.761 288.02 384.43 288.005 384.09C287.99 383.749 288.062 383.411 288.214 383.106L294.338 370.894C294.372 370.838 298 365.302 298 360C298 353.516 293.414 351.914 293.368 351.898C293.116 351.818 292.882 351.688 292.68 351.516C292.478 351.345 292.312 351.135 292.193 350.898C292.073 350.662 292.001 350.405 291.981 350.14C291.962 349.876 291.995 349.611 292.079 349.36C292.162 349.108 292.295 348.876 292.47 348.677C292.644 348.477 292.856 348.314 293.094 348.198C293.331 348.081 293.59 348.012 293.854 347.996C294.119 347.98 294.384 348.017 294.634 348.104C294.934 348.204 302 350.666 302 360C302 366.136 298.328 372.084 297.738 372.994L291.79 384.892C291.625 385.225 291.369 385.506 291.053 385.702C290.737 385.897 290.372 386.001 290 386Z" fill="#DD2E44"/>
<path d="M305.224 353.326C305.113 353.326 305.003 353.317 304.894 353.298L292.894 351.298C292.371 351.211 291.903 350.919 291.595 350.487C291.287 350.056 291.163 349.519 291.25 348.996C291.337 348.473 291.629 348.006 292.06 347.697C292.492 347.389 293.029 347.265 293.552 347.352L305.552 349.352C306.048 349.433 306.496 349.698 306.806 350.094C307.116 350.491 307.265 350.989 307.224 351.49C307.182 351.992 306.954 352.459 306.583 352.799C306.212 353.14 305.727 353.328 305.224 353.326ZM328.766 360C328.706 360 328.647 359.996 328.588 359.988L317.244 358.572C316.875 358.541 316.533 358.367 316.29 358.087C316.048 357.807 315.925 357.443 315.948 357.074C315.971 356.704 316.137 356.358 316.412 356.11C316.687 355.862 317.048 355.731 317.418 355.746C317.5 355.746 325.552 355.71 329.396 353.148C329.642 352.985 329.933 352.902 330.228 352.912C330.523 352.921 330.808 353.022 331.044 353.2C331.278 353.38 331.45 353.629 331.536 353.911C331.622 354.193 331.619 354.496 331.526 354.776L330.108 359.03C330.015 359.313 329.835 359.558 329.594 359.733C329.353 359.907 329.063 360 328.766 360Z" fill="#292F33"/>
<path d="M316 384C316 385.061 315.579 386.078 314.828 386.828C314.078 387.579 313.061 388 312 388C310.939 388 309.922 387.579 309.172 386.828C308.421 386.078 308 385.061 308 384C308 382.939 308.421 381.922 309.172 381.172C309.922 380.421 310.939 380 312 380C313.061 380 314.078 380.421 314.828 381.172C315.579 381.922 316 382.939 316 384Z" fill="#66757F"/>
</g>
<path d="M233.278 469V456.4H237.364C238.84 456.4 240.052 456.658 241 457.174C241.96 457.69 242.668 458.422 243.124 459.37C243.592 460.306 243.826 461.422 243.826 462.718C243.826 464.002 243.592 465.118 243.124 466.066C242.668 467.002 241.96 467.728 241 468.244C240.052 468.748 238.84 469 237.364 469H233.278ZM235.186 467.38H237.292C238.432 467.38 239.332 467.194 239.992 466.822C240.664 466.45 241.144 465.916 241.432 465.22C241.732 464.524 241.882 463.69 241.882 462.718C241.882 461.746 241.732 460.906 241.432 460.198C241.144 459.49 240.664 458.95 239.992 458.578C239.332 458.194 238.432 458.002 237.292 458.002H235.186V467.38ZM245.322 469V460.072H247.032L247.194 461.764C247.506 461.176 247.938 460.714 248.49 460.378C249.054 460.03 249.732 459.856 250.524 459.856V461.854H250.002C249.474 461.854 249 461.944 248.58 462.124C248.172 462.292 247.842 462.586 247.59 463.006C247.35 463.414 247.23 463.984 247.23 464.716V469H245.322ZM255.55 469.216C254.674 469.216 253.894 469.024 253.21 468.64C252.538 468.244 252.01 467.698 251.626 467.002C251.242 466.306 251.05 465.496 251.05 464.572C251.05 463.636 251.236 462.814 251.608 462.106C251.992 461.398 252.52 460.846 253.192 460.45C253.876 460.054 254.668 459.856 255.568 459.856C256.444 459.856 257.206 460.054 257.854 460.45C258.502 460.834 259.006 461.35 259.366 461.998C259.726 462.646 259.906 463.36 259.906 464.14C259.906 464.26 259.9 464.392 259.888 464.536C259.888 464.668 259.882 464.818 259.87 464.986H252.922C252.982 465.85 253.264 466.51 253.768 466.966C254.284 467.41 254.878 467.632 255.55 467.632C256.09 467.632 256.54 467.512 256.9 467.272C257.272 467.02 257.548 466.684 257.728 466.264H259.636C259.396 467.104 258.916 467.806 258.196 468.37C257.488 468.934 256.606 469.216 255.55 469.216ZM255.55 461.422C254.914 461.422 254.35 461.614 253.858 461.998C253.366 462.37 253.066 462.934 252.958 463.69H257.998C257.962 462.994 257.716 462.442 257.26 462.034C256.804 461.626 256.234 461.422 255.55 461.422ZM264.37 469.216C263.614 469.216 262.99 469.09 262.498 468.838C262.006 468.586 261.64 468.256 261.4 467.848C261.16 467.428 261.04 466.972 261.04 466.48C261.04 465.616 261.376 464.932 262.048 464.428C262.72 463.924 263.68 463.672 264.928 463.672H267.268V463.51C267.268 462.814 267.076 462.292 266.692 461.944C266.32 461.596 265.834 461.422 265.234 461.422C264.706 461.422 264.244 461.554 263.848 461.818C263.464 462.07 263.23 462.448 263.146 462.952H261.238C261.298 462.304 261.514 461.752 261.886 461.296C262.27 460.828 262.75 460.474 263.326 460.234C263.914 459.982 264.556 459.856 265.252 459.856C266.5 459.856 267.466 460.186 268.15 460.846C268.834 461.494 269.176 462.382 269.176 463.51V469H267.52L267.358 467.47C267.106 467.962 266.74 468.376 266.26 468.712C265.78 469.048 265.15 469.216 264.37 469.216ZM264.748 467.668C265.264 467.668 265.696 467.548 266.044 467.308C266.404 467.056 266.68 466.726 266.872 466.318C267.076 465.91 267.202 465.46 267.25 464.968H265.126C264.37 464.968 263.83 465.1 263.506 465.364C263.194 465.628 263.038 465.958 263.038 466.354C263.038 466.762 263.188 467.086 263.488 467.326C263.8 467.554 264.22 467.668 264.748 467.668ZM270.86 469V460.072H272.552L272.714 461.332C273.002 460.876 273.38 460.516 273.848 460.252C274.328 459.988 274.88 459.856 275.504 459.856C276.92 459.856 277.904 460.414 278.456 461.53C278.78 461.014 279.212 460.606 279.752 460.306C280.304 460.006 280.898 459.856 281.534 459.856C282.65 459.856 283.526 460.192 284.162 460.864C284.798 461.536 285.116 462.538 285.116 463.87V469H283.208V464.068C283.208 462.34 282.548 461.476 281.228 461.476C280.556 461.476 280.004 461.728 279.572 462.232C279.152 462.736 278.942 463.456 278.942 464.392V469H277.034V464.068C277.034 462.34 276.368 461.476 275.036 461.476C274.376 461.476 273.83 461.728 273.398 462.232C272.978 462.736 272.768 463.456 272.768 464.392V469H270.86ZM295.826 469.216C295.13 469.216 294.512 469.078 293.972 468.802C293.444 468.526 293.024 468.136 292.712 467.632L292.514 469H290.804V456.04H292.712V461.458C293 461.038 293.396 460.666 293.9 460.342C294.404 460.018 295.052 459.856 295.844 459.856C296.708 459.856 297.47 460.06 298.13 460.468C298.79 460.876 299.306 461.434 299.678 462.142C300.062 462.85 300.254 463.654 300.254 464.554C300.254 465.454 300.062 466.258 299.678 466.966C299.306 467.662 298.79 468.214 298.13 468.622C297.47 469.018 296.702 469.216 295.826 469.216ZM295.502 467.56C296.318 467.56 296.99 467.284 297.518 466.732C298.046 466.168 298.31 465.436 298.31 464.536C298.31 463.948 298.19 463.426 297.95 462.97C297.71 462.514 297.38 462.16 296.96 461.908C296.54 461.644 296.054 461.512 295.502 461.512C294.686 461.512 294.014 461.794 293.486 462.358C292.97 462.922 292.712 463.648 292.712 464.536C292.712 465.436 292.97 466.168 293.486 466.732C294.014 467.284 294.686 467.56 295.502 467.56ZM302.858 458.38C302.498 458.38 302.198 458.272 301.958 458.056C301.73 457.828 301.616 457.546 301.616 457.21C301.616 456.874 301.73 456.598 301.958 456.382C302.198 456.154 302.498 456.04 302.858 456.04C303.218 456.04 303.512 456.154 303.74 456.382C303.98 456.598 304.1 456.874 304.1 457.21C304.1 457.546 303.98 457.828 303.74 458.056C303.512 458.272 303.218 458.38 302.858 458.38ZM301.904 469V460.072H303.812V469H301.904ZM305.79 469V456.04H307.698V463.762L311.118 460.072H313.404L309.606 464.122L313.962 469H311.55L307.698 464.428V469H305.79ZM318.391 469.216C317.515 469.216 316.735 469.024 316.051 468.64C315.379 468.244 314.851 467.698 314.467 467.002C314.083 466.306 313.891 465.496 313.891 464.572C313.891 463.636 314.077 462.814 314.449 462.106C314.833 461.398 315.361 460.846 316.033 460.45C316.717 460.054 317.509 459.856 318.409 459.856C319.285 459.856 320.047 460.054 320.695 460.45C321.343 460.834 321.847 461.35 322.207 461.998C322.567 462.646 322.747 463.36 322.747 464.14C322.747 464.26 322.741 464.392 322.729 464.536C322.729 464.668 322.723 464.818 322.711 464.986H315.763C315.823 465.85 316.105 466.51 316.609 466.966C317.125 467.41 317.719 467.632 318.391 467.632C318.931 467.632 319.381 467.512 319.741 467.272C320.113 467.02 320.389 466.684 320.569 466.264H322.477C322.237 467.104 321.757 467.806 321.037 468.37C320.329 468.934 319.447 469.216 318.391 469.216ZM318.391 461.422C317.755 461.422 317.191 461.614 316.699 461.998C316.207 462.37 315.907 462.934 315.799 463.69H320.839C320.803 462.994 320.557 462.442 320.101 462.034C319.645 461.626 319.075 461.422 318.391 461.422Z" fill="#1A191E"/>
<path d="M232.979 495V493.886L236.425 490.317C236.793 489.929 237.096 489.589 237.335 489.298C237.576 489.003 237.757 488.723 237.876 488.457C237.996 488.192 238.055 487.911 238.055 487.612C238.055 487.274 237.976 486.982 237.817 486.737C237.658 486.489 237.441 486.298 237.165 486.165C236.89 486.03 236.58 485.962 236.236 485.962C235.871 485.962 235.553 486.036 235.281 486.185C235.009 486.335 234.801 486.545 234.655 486.817C234.509 487.089 234.436 487.407 234.436 487.771H232.969C232.969 487.152 233.112 486.61 233.397 486.146C233.682 485.682 234.073 485.322 234.57 485.067C235.067 484.808 235.633 484.679 236.266 484.679C236.905 484.679 237.469 484.807 237.956 485.062C238.446 485.314 238.829 485.658 239.104 486.096C239.379 486.53 239.517 487.021 239.517 487.567C239.517 487.945 239.446 488.315 239.303 488.676C239.164 489.037 238.92 489.44 238.572 489.884C238.224 490.325 237.741 490.86 237.121 491.49L235.097 493.608V493.683H239.681V495H232.979ZM245.11 495.169C244.325 495.166 243.653 494.959 243.097 494.548C242.54 494.137 242.114 493.538 241.819 492.753C241.524 491.967 241.376 491.021 241.376 489.914C241.376 488.81 241.524 487.867 241.819 487.085C242.117 486.303 242.545 485.706 243.102 485.295C243.662 484.884 244.331 484.679 245.11 484.679C245.889 484.679 246.557 484.886 247.114 485.3C247.67 485.711 248.096 486.308 248.391 487.09C248.69 487.869 248.839 488.81 248.839 489.914C248.839 491.024 248.691 491.972 248.396 492.758C248.101 493.54 247.675 494.138 247.119 494.553C246.562 494.964 245.892 495.169 245.11 495.169ZM245.11 493.842C245.799 493.842 246.338 493.505 246.726 492.832C247.117 492.16 247.312 491.187 247.312 489.914C247.312 489.069 247.223 488.355 247.044 487.771C246.868 487.185 246.615 486.741 246.283 486.439C245.955 486.134 245.564 485.982 245.11 485.982C244.424 485.982 243.885 486.32 243.494 486.996C243.103 487.672 242.906 488.645 242.903 489.914C242.903 490.763 242.991 491.48 243.166 492.067C243.345 492.65 243.599 493.093 243.927 493.394C244.255 493.692 244.649 493.842 245.11 493.842ZM254.147 495.169C253.362 495.166 252.691 494.959 252.134 494.548C251.577 494.137 251.151 493.538 250.856 492.753C250.561 491.967 250.414 491.021 250.414 489.914C250.414 488.81 250.561 487.867 250.856 487.085C251.154 486.303 251.582 485.706 252.139 485.295C252.699 484.884 253.368 484.679 254.147 484.679C254.926 484.679 255.594 484.886 256.151 485.3C256.708 485.711 257.133 486.308 257.428 487.09C257.727 487.869 257.876 488.81 257.876 489.914C257.876 491.024 257.728 491.972 257.433 492.758C257.138 493.54 256.713 494.138 256.156 494.553C255.599 494.964 254.929 495.169 254.147 495.169ZM254.147 493.842C254.837 493.842 255.375 493.505 255.763 492.832C256.154 492.16 256.35 491.187 256.35 489.914C256.35 489.069 256.26 488.355 256.081 487.771C255.905 487.185 255.652 486.741 255.32 486.439C254.992 486.134 254.601 485.982 254.147 485.982C253.461 485.982 252.923 486.32 252.531 486.996C252.14 487.672 251.943 488.645 251.94 489.914C251.94 490.763 252.028 491.48 252.203 492.067C252.382 492.65 252.636 493.093 252.964 493.394C253.292 493.692 253.686 493.842 254.147 493.842ZM262.782 496.273V483.545H263.597V496.273H262.782ZM265.332 487.493C265.279 487.022 265.06 486.658 264.676 486.399C264.291 486.137 263.807 486.006 263.224 486.006C262.806 486.006 262.445 486.073 262.14 486.205C261.835 486.335 261.598 486.513 261.429 486.742C261.264 486.968 261.181 487.224 261.181 487.513C261.181 487.755 261.237 487.964 261.35 488.139C261.466 488.315 261.617 488.462 261.802 488.582C261.991 488.698 262.193 488.795 262.409 488.875C262.624 488.951 262.831 489.014 263.03 489.064L264.025 489.322C264.349 489.402 264.682 489.51 265.024 489.646C265.365 489.781 265.682 489.96 265.973 490.183C266.265 490.405 266.5 490.68 266.679 491.008C266.862 491.336 266.953 491.729 266.953 492.186C266.953 492.763 266.804 493.275 266.505 493.722C266.21 494.17 265.781 494.523 265.218 494.781C264.658 495.04 263.98 495.169 263.184 495.169C262.422 495.169 261.762 495.048 261.206 494.806C260.649 494.564 260.213 494.221 259.898 493.777C259.583 493.33 259.409 492.799 259.376 492.186H260.917C260.947 492.554 261.066 492.861 261.275 493.106C261.487 493.348 261.757 493.528 262.086 493.648C262.417 493.764 262.78 493.822 263.174 493.822C263.609 493.822 263.995 493.754 264.333 493.618C264.674 493.479 264.943 493.286 265.138 493.041C265.334 492.793 265.431 492.503 265.431 492.171C265.431 491.87 265.345 491.623 265.173 491.43C265.004 491.238 264.774 491.079 264.482 490.953C264.194 490.827 263.867 490.716 263.502 490.62L262.299 490.292C261.484 490.07 260.838 489.743 260.36 489.312C259.886 488.882 259.65 488.312 259.65 487.602C259.65 487.016 259.809 486.504 260.127 486.066C260.445 485.629 260.876 485.289 261.419 485.047C261.963 484.802 262.576 484.679 263.259 484.679C263.948 484.679 264.556 484.8 265.083 485.042C265.614 485.284 266.031 485.617 266.336 486.041C266.641 486.462 266.8 486.946 266.814 487.493H265.332Z" fill="#1A191E" fill-opacity="0.5"/>
</g>
<defs>
<clipPath id="clip0_722_1098">
<rect x="0.666992" width="378.667" height="550" rx="20" fill="white"/>
</clipPath>
<clipPath id="clip1_722_1098">
<rect width="72" height="72" fill="white" transform="translate(276 326)"/>
</clipPath>
</defs>
</svg>
