<svg width="21" height="20" viewBox="0 0 21 20" fill="none" xmlns="http://www.w3.org/2000/svg">
<path d="M13.758 2.74999C13.6351 3.35492 13.6351 3.97839 13.758 4.58332H3.13476L10.0556 10.6902L14.6838 6.54682C15.0743 7.02991 15.562 7.43232 16.1166 7.72474L10.0657 13.1432L2.66634 6.61466V17.4167H17.333V8.15832C17.9379 8.28122 18.5614 8.28122 19.1663 8.15832V18.3333C19.1663 18.5764 19.0698 18.8096 18.8979 18.9815C18.7259 19.1534 18.4928 19.25 18.2497 19.25H1.74967C1.50656 19.25 1.2734 19.1534 1.10149 18.9815C0.929585 18.8096 0.833008 18.5764 0.833008 18.3333V3.66666C0.833008 3.42354 0.929585 3.19038 1.10149 3.01848C1.2734 2.84657 1.50656 2.74999 1.74967 2.74999H13.758ZM18.2497 6.41666C17.8885 6.41666 17.5309 6.34553 17.1973 6.20732C16.8636 6.06912 16.5605 5.86656 16.3051 5.6112C16.0498 5.35584 15.8472 5.05268 15.709 4.71904C15.5708 4.38539 15.4997 4.02779 15.4997 3.66666C15.4997 3.30552 15.5708 2.94792 15.709 2.61428C15.8472 2.28063 16.0498 1.97747 16.3051 1.72211C16.5605 1.46675 16.8636 1.26419 17.1973 1.12599C17.5309 0.987787 17.8885 0.916656 18.2497 0.916656C18.979 0.916657 19.6785 1.20639 20.1942 1.72211C20.7099 2.23784 20.9997 2.93731 20.9997 3.66666C20.9997 4.396 20.7099 5.09548 20.1942 5.6112C19.6785 6.12692 18.979 6.41666 18.2497 6.41666Z" fill="white"/>
</svg>
