<svg width="23" height="24" viewBox="0 0 23 24" fill="none" xmlns="http://www.w3.org/2000/svg">
<path d="M9.83333 0.333313L18.3477 2.99331C18.5851 3.06745 18.7927 3.21554 18.94 3.41598C19.0874 3.61642 19.1668 3.85871 19.1667 4.10748V6.16665H21.5C21.8094 6.16665 22.1062 6.28956 22.325 6.50836C22.5438 6.72715 22.6667 7.02389 22.6667 7.33331V9.66665H7.5V7.33331C7.5 7.02389 7.62292 6.72715 7.84171 6.50836C8.0605 6.28956 8.35725 6.16665 8.66667 6.16665H16.8333V4.96498L9.83333 2.77631L2.83333 4.96498V13.603C2.83317 14.3172 2.99696 15.022 3.31209 15.663C3.62723 16.304 4.08529 16.8641 4.651 17.3001L4.8715 17.4588L9.83333 20.8433L14.2457 17.8333H8.66667C8.35725 17.8333 8.0605 17.7104 7.84171 17.4916C7.62292 17.2728 7.5 16.9761 7.5 16.6666V12H22.6667V16.6666C22.6667 16.9761 22.5438 17.2728 22.325 17.4916C22.1062 17.7104 21.8094 17.8333 21.5 17.8333L17.7433 17.8345C17.2918 18.4295 16.7435 18.9545 16.11 19.3861L9.83333 23.6666L3.55667 19.3873C2.61461 18.745 1.84371 17.8823 1.311 16.8742C0.778283 15.8661 0.499882 14.7432 0.5 13.603V4.10748C0.500141 3.85891 0.579668 3.61689 0.726989 3.41668C0.874311 3.21647 1.08173 3.06855 1.319 2.99448L9.83333 0.333313Z" fill="#5BB5A2"/>
</svg>
